<svg width="1512" height="982" viewBox="0 0 1512 982" fill="none" xmlns="http://www.w3.org/2000/svg">
<g clip-path="url(#clip0_38_2924)">
<mask id="mask0_38_2924" style="mask-type:luminance" maskUnits="userSpaceOnUse" x="1209" y="0" width="303" height="328">
<path d="M1512 0H1209.6V327.984H1512V0Z" fill="white"/>
</mask>
<g mask="url(#mask0_38_2924)">
<path d="M1512 0H1209.6V327.984H1512V0Z" fill="#0D0D0D"/>
<path fill-rule="evenodd" clip-rule="evenodd" d="M1183.62 -25.9641L1257.67 32.5765L1198.11 93.8963L1248.44 156.686L1135.56 202.135L1224.74 245.396L1326.43 220.384L1406.24 270.432L1486.01 302.004L1560.11 360.647L1559.9 360.918L1485.83 302.306L1406.1 270.747L1406.08 270.741L1406.07 270.733L1326.37 220.754L1225.13 245.655L1321.4 313.221L1257.32 360.865L1224.58 245.699L1134.71 202.105L1247.88 156.539L1197.65 93.8744L1257.16 32.6102L1183.41 -25.6935L1183.62 -25.9641ZM1225.02 245.999L1257.51 360.29L1320.82 313.229L1225.02 245.999ZM1601.56 107.135L1500.26 94.0565L1500.3 93.7143L1601.61 106.793L1601.56 107.135Z" fill="#444444"/>
<path fill-rule="evenodd" clip-rule="evenodd" d="M1299.11 107.169L1197.86 94.0566L1197.9 93.7145L1299.26 106.84L1357.12 156.471L1438.05 202.211L1326.16 220.547L1247.86 156.541L1248.08 156.274L1326.26 220.181L1437.02 202.029L1356.92 156.754L1299.11 107.169ZM1321.26 313.149L1349.61 370.956L1349.31 371.108L1320.96 313.301L1321.26 313.149Z" fill="#444444"/>
<path fill-rule="evenodd" clip-rule="evenodd" d="M1321.17 -15.0215L1349.55 42.8367L1427.95 16.8158L1500.62 93.9965L1413.42 110.446L1357.16 156.721L1326.57 220.613L1321.3 312.937L1406.03 270.46L1437.45 201.888L1527.38 245.513L1486.04 302.278L1427.99 345.489L1406.05 270.834L1320.92 313.513L1326.23 220.525L1356.88 156.503L1413.27 110.123L1499.94 93.7743L1427.84 17.2126L1349.37 43.2591L1321.05 -14.4971L1257.64 32.6413L1299.4 107.036L1248.31 156.703L1224.88 245.653L1183.75 302.123L1257.71 360.647L1257.5 360.918L1183.28 302.188L1224.56 245.503L1248 156.522L1298.97 106.974L1257.19 32.5455L1321.17 -15.0215ZM1406.34 270.6L1428.18 344.917L1485.79 302.033L1526.86 245.643L1437.62 202.352L1406.34 270.6Z" fill="#444444"/>
<path fill-rule="evenodd" clip-rule="evenodd" d="M1405.99 -57.3482L1406.33 -57.446L1428.37 17.1373L1485.81 -25.9666L1486.02 -25.6907L1428.18 17.7112L1405.99 -57.3482ZM1299.53 106.842L1349.6 43.1546L1349.32 42.9414L1298.84 107.167L1413.21 110.453L1437.37 202.164L1437.7 202.076L1413.59 110.551L1550.5 156.776L1550.61 156.449L1413.37 110.113L1299.53 106.842ZM1248.16 156.44H1357.02V156.785H1248.16V156.44Z" fill="#444444"/>
<path fill-rule="evenodd" clip-rule="evenodd" d="M1257.32 32.4078L1224.55 -82.3587L1224.89 -82.4534L1257.69 32.4503L1349.54 42.8836L1413.23 109.912L1427.7 17.1365L1321.06 -14.594L1321.16 -14.9246L1427.93 16.8446L1560.37 32.6686L1500.51 93.8968L1550.84 156.686L1437.77 202.211L1486.07 302.08L1485.76 302.23L1437.3 202.029L1550.28 156.539L1500.05 93.8741L1559.64 32.9281L1428.04 17.2052L1413.46 110.658L1349.38 43.2122L1257.63 32.7913L1257.44 32.8457L1257.42 32.7671L1257.4 32.7648L1125.66 17.3905L1125.7 17.0478L1257.32 32.4078ZM1111 110.121L1248.21 156.449L1248.1 156.776L1110.89 110.448L1111 110.121ZM1321.16 313.06L1428.13 345.038L1428.03 345.368L1321.06 313.39L1321.16 313.06Z" fill="#444444"/>
<path d="M1500.28 95.9354C1501.33 95.9354 1502.17 95.0176 1502.17 93.8855C1502.17 92.7534 1501.33 91.8356 1500.28 91.8356C1499.24 91.8356 1498.39 92.7534 1498.39 93.8855C1498.39 95.0176 1499.24 95.9354 1500.28 95.9354Z" fill="#555555"/>
<path d="M1413.34 112.335C1414.39 112.335 1415.23 111.417 1415.23 110.285C1415.23 109.153 1414.39 108.235 1413.34 108.235C1412.3 108.235 1411.45 109.153 1411.45 110.285C1411.45 111.417 1412.3 112.335 1413.34 112.335Z" fill="#555555"/>
<path d="M1437.53 204.17C1438.58 204.17 1439.42 203.252 1439.42 202.12C1439.42 200.988 1438.58 200.07 1437.53 200.07C1436.49 200.07 1435.64 200.988 1435.64 202.12C1435.64 203.252 1436.49 204.17 1437.53 204.17Z" fill="#555555"/>
<path d="M1485.92 304.205C1486.96 304.205 1487.81 303.287 1487.81 302.155C1487.81 301.023 1486.96 300.105 1485.92 300.105C1484.87 300.105 1484.03 301.023 1484.03 302.155C1484.03 303.287 1484.87 304.205 1485.92 304.205Z" fill="#555555"/>
<path d="M1406.16 272.637C1407.2 272.637 1408.05 271.719 1408.05 270.587C1408.05 269.455 1407.2 268.537 1406.16 268.537C1405.12 268.537 1404.27 269.455 1404.27 270.587C1404.27 271.719 1405.12 272.637 1406.16 272.637Z" fill="#555555"/>
<path d="M1326.4 222.619C1327.45 222.619 1328.29 221.701 1328.29 220.569C1328.29 219.437 1327.45 218.519 1326.4 218.519C1325.36 218.519 1324.51 219.437 1324.51 220.569C1324.51 221.701 1325.36 222.619 1326.4 222.619Z" fill="#555555"/>
<path d="M1321.11 315.275C1322.15 315.275 1323 314.357 1323 313.225C1323 312.093 1322.15 311.175 1321.11 311.175C1320.07 311.175 1319.22 312.093 1319.22 313.225C1319.22 314.357 1320.07 315.275 1321.11 315.275Z" fill="#555555"/>
<path d="M1224.72 247.628C1225.76 247.628 1226.61 246.71 1226.61 245.578C1226.61 244.446 1225.76 243.528 1224.72 243.528C1223.68 243.528 1222.83 244.446 1222.83 245.578C1222.83 246.71 1223.68 247.628 1224.72 247.628Z" fill="#555555"/>
<path d="M1248.16 158.662C1249.2 158.662 1250.05 157.745 1250.05 156.612C1250.05 155.48 1249.2 154.562 1248.16 154.562C1247.11 154.562 1246.27 155.48 1246.27 156.612C1246.27 157.745 1247.11 158.662 1248.16 158.662Z" fill="#555555"/>
<path d="M1257.61 34.8483C1258.65 34.8483 1259.5 33.9305 1259.5 32.7984C1259.5 31.6663 1258.65 30.7485 1257.61 30.7485C1256.56 30.7485 1255.72 31.6663 1255.72 32.7984C1255.72 33.9305 1256.56 34.8483 1257.61 34.8483Z" fill="#555555"/>
<path d="M1349.46 45.0978C1350.5 45.0978 1351.35 44.18 1351.35 43.0479C1351.35 41.9158 1350.5 40.998 1349.46 40.998C1348.42 40.998 1347.57 41.9158 1347.57 43.0479C1347.57 44.18 1348.42 45.0978 1349.46 45.0978Z" fill="#555555"/>
<path d="M1428.08 19.2691C1429.13 19.2691 1429.97 18.3513 1429.97 17.2192C1429.97 16.087 1429.13 15.1693 1428.08 15.1693C1427.04 15.1693 1426.19 16.087 1426.19 17.2192C1426.19 18.3513 1427.04 19.2691 1428.08 19.2691Z" fill="#555555"/>
<path d="M1299.19 109.055C1300.23 109.055 1301.08 108.137 1301.08 107.005C1301.08 105.873 1300.23 104.955 1299.19 104.955C1298.14 104.955 1297.3 105.873 1297.3 107.005C1297.3 108.137 1298.14 109.055 1299.19 109.055Z" fill="#555555"/>
<path d="M1357.02 158.662C1358.06 158.662 1358.91 157.745 1358.91 156.612C1358.91 155.48 1358.06 154.562 1357.02 154.562C1355.98 154.562 1355.13 155.48 1355.13 156.612C1355.13 157.745 1355.98 158.662 1357.02 158.662Z" fill="#555555"/>
</g>
<mask id="mask1_38_2924" style="mask-type:luminance" maskUnits="userSpaceOnUse" x="907" y="0" width="303" height="328">
<path d="M1209.6 0H907.2V327.984H1209.6V0Z" fill="white"/>
</mask>
<g mask="url(#mask1_38_2924)">
<path d="M1209.6 0H907.2V327.984H1209.6V0Z" fill="#0D0D0D"/>
<path fill-rule="evenodd" clip-rule="evenodd" d="M881.225 -25.9641L955.274 32.5765L895.712 93.8963L946.036 156.686L833.159 202.135L922.339 245.396L1024.03 220.384L1103.84 270.432L1183.61 302.004L1257.71 360.647L1257.5 360.918L1183.43 302.306L1103.7 270.747L1103.68 270.741L1103.67 270.733L1023.97 220.754L922.73 245.655L1019 313.221L954.919 360.865L922.175 245.699L832.309 202.105L945.476 156.539L895.252 93.8744L954.76 32.6102L881.011 -25.6935L881.225 -25.9641ZM922.619 245.999L955.115 360.29L1018.42 313.229L922.619 245.999ZM1299.16 107.135L1197.86 94.0565L1197.9 93.7143L1299.21 106.793L1299.16 107.135Z" fill="#444444"/>
<path fill-rule="evenodd" clip-rule="evenodd" d="M996.713 107.169L895.46 94.0566L895.504 93.7145L996.859 106.84L1054.72 156.471L1135.65 202.211L1023.76 220.547L945.458 156.541L945.676 156.274L1023.86 220.181L1134.62 202.029L1054.52 156.754L996.713 107.169ZM1018.86 313.149L1047.21 370.956L1046.91 371.108L1018.56 313.301L1018.86 313.149Z" fill="#444444"/>
<path fill-rule="evenodd" clip-rule="evenodd" d="M1018.77 -15.0215L1047.15 42.8367L1125.55 16.8158L1198.22 93.9965L1111.02 110.446L1054.76 156.721L1024.17 220.613L1018.9 312.937L1103.63 270.46L1135.05 201.888L1224.98 245.513L1183.64 302.278L1125.59 345.489L1103.65 270.834L1018.52 313.513L1023.83 220.525L1054.48 156.503L1110.87 110.123L1197.54 93.7743L1125.44 17.2126L1046.97 43.2591L1018.65 -14.4971L955.242 32.6413L997.001 107.036L945.911 156.703L922.479 245.653L881.355 302.123L955.313 360.647L955.099 360.918L880.881 302.188L922.161 245.503L945.601 156.522L996.571 106.974L954.792 32.5455L1018.77 -15.0215ZM1103.94 270.6L1125.78 344.917L1183.39 302.033L1224.46 245.643L1135.22 202.352L1103.94 270.6Z" fill="#444444"/>
<path fill-rule="evenodd" clip-rule="evenodd" d="M1103.59 -57.3482L1103.93 -57.446L1125.97 17.1373L1183.41 -25.9666L1183.62 -25.6907L1125.78 17.7112L1103.59 -57.3482ZM997.133 106.842L1047.2 43.1546L1046.92 42.9414L996.439 107.167L1110.81 110.453L1134.97 202.164L1135.3 202.076L1111.19 110.551L1248.1 156.776L1248.21 156.449L1110.97 110.113L997.133 106.842ZM945.756 156.44H1054.62V156.785H945.756V156.44Z" fill="#444444"/>
<path fill-rule="evenodd" clip-rule="evenodd" d="M954.915 32.4078L922.154 -82.3587L922.486 -82.4534L955.286 32.4503L1047.14 42.8836L1110.83 109.912L1125.3 17.1365L1018.66 -14.594L1018.76 -14.9246L1125.53 16.8446L1257.97 32.6686L1198.11 93.8968L1248.44 156.686L1135.37 202.211L1183.67 302.08L1183.36 302.23L1134.9 202.029L1247.88 156.539L1197.65 93.8741L1257.24 32.9281L1125.64 17.2052L1111.06 110.658L1046.98 43.2122L955.231 32.7913L955.04 32.8457L955.018 32.7671L954.998 32.7648L823.264 17.3905L823.304 17.0478L954.915 32.4078ZM808.597 110.121L945.811 156.449L945.701 156.776L808.487 110.448L808.597 110.121ZM1018.76 313.06L1125.73 345.038L1125.63 345.368L1018.66 313.39L1018.76 313.06Z" fill="#444444"/>
<path d="M1197.88 95.9354C1198.93 95.9354 1199.77 95.0176 1199.77 93.8855C1199.77 92.7534 1198.93 91.8356 1197.88 91.8356C1196.84 91.8356 1195.99 92.7534 1195.99 93.8855C1195.99 95.0176 1196.84 95.9354 1197.88 95.9354Z" fill="#555555"/>
<path d="M1110.94 112.335C1111.99 112.335 1112.83 111.417 1112.83 110.285C1112.83 109.153 1111.99 108.235 1110.94 108.235C1109.9 108.235 1109.05 109.153 1109.05 110.285C1109.05 111.417 1109.9 112.335 1110.94 112.335Z" fill="#555555"/>
<path d="M1135.13 204.17C1136.18 204.17 1137.02 203.252 1137.02 202.12C1137.02 200.988 1136.18 200.07 1135.13 200.07C1134.09 200.07 1133.24 200.988 1133.24 202.12C1133.24 203.252 1134.09 204.17 1135.13 204.17Z" fill="#555555"/>
<path d="M1183.52 304.205C1184.56 304.205 1185.41 303.287 1185.41 302.155C1185.41 301.023 1184.56 300.105 1183.52 300.105C1182.47 300.105 1181.63 301.023 1181.63 302.155C1181.63 303.287 1182.47 304.205 1183.52 304.205Z" fill="#555555"/>
<path d="M1103.76 272.637C1104.8 272.637 1105.65 271.719 1105.65 270.587C1105.65 269.455 1104.8 268.537 1103.76 268.537C1102.72 268.537 1101.87 269.455 1101.87 270.587C1101.87 271.719 1102.72 272.637 1103.76 272.637Z" fill="#555555"/>
<path d="M1024 222.619C1025.05 222.619 1025.89 221.701 1025.89 220.569C1025.89 219.437 1025.05 218.519 1024 218.519C1022.96 218.519 1022.11 219.437 1022.11 220.569C1022.11 221.701 1022.96 222.619 1024 222.619Z" fill="#555555"/>
<path d="M1018.71 315.275C1019.75 315.275 1020.6 314.357 1020.6 313.225C1020.6 312.093 1019.75 311.175 1018.71 311.175C1017.67 311.175 1016.82 312.093 1016.82 313.225C1016.82 314.357 1017.67 315.275 1018.71 315.275Z" fill="#555555"/>
<path d="M922.32 247.628C923.364 247.628 924.21 246.71 924.21 245.578C924.21 244.446 923.364 243.528 922.32 243.528C921.276 243.528 920.43 244.446 920.43 245.578C920.43 246.71 921.276 247.628 922.32 247.628Z" fill="#555555"/>
<path d="M945.756 158.662C946.8 158.662 947.646 157.745 947.646 156.612C947.646 155.48 946.8 154.562 945.756 154.562C944.712 154.562 943.866 155.48 943.866 156.612C943.866 157.745 944.712 158.662 945.756 158.662Z" fill="#555555"/>
<path d="M955.206 34.8483C956.25 34.8483 957.096 33.9305 957.096 32.7984C957.096 31.6663 956.25 30.7485 955.206 30.7485C954.162 30.7485 953.316 31.6663 953.316 32.7984C953.316 33.9305 954.162 34.8483 955.206 34.8483Z" fill="#555555"/>
<path d="M1047.06 45.0978C1048.1 45.0978 1048.95 44.18 1048.95 43.0479C1048.95 41.9158 1048.1 40.998 1047.06 40.998C1046.02 40.998 1045.17 41.9158 1045.17 43.0479C1045.17 44.18 1046.02 45.0978 1047.06 45.0978Z" fill="#555555"/>
<path d="M1125.68 19.2691C1126.73 19.2691 1127.57 18.3513 1127.57 17.2192C1127.57 16.087 1126.73 15.1693 1125.68 15.1693C1124.64 15.1693 1123.79 16.087 1123.79 17.2192C1123.79 18.3513 1124.64 19.2691 1125.68 19.2691Z" fill="#555555"/>
<path d="M996.786 109.055C997.83 109.055 998.676 108.137 998.676 107.005C998.676 105.873 997.83 104.955 996.786 104.955C995.742 104.955 994.896 105.873 994.896 107.005C994.896 108.137 995.742 109.055 996.786 109.055Z" fill="#555555"/>
<path d="M1054.62 158.662C1055.66 158.662 1056.51 157.745 1056.51 156.612C1056.51 155.48 1055.66 154.562 1054.62 154.562C1053.58 154.562 1052.73 155.48 1052.73 156.612C1052.73 157.745 1053.58 158.662 1054.62 158.662Z" fill="#555555"/>
</g>
<mask id="mask2_38_2924" style="mask-type:luminance" maskUnits="userSpaceOnUse" x="604" y="0" width="304" height="328">
<path d="M907.2 0H604.8V327.984H907.2V0Z" fill="white"/>
</mask>
<g mask="url(#mask2_38_2924)">
<path d="M907.2 0H604.8V327.984H907.2V0Z" fill="#0D0D0D"/>
<path fill-rule="evenodd" clip-rule="evenodd" d="M578.825 -25.9641L652.874 32.5765L593.312 93.8963L643.636 156.686L530.759 202.135L619.939 245.396L721.632 220.384L801.438 270.432L881.205 302.004L955.313 360.647L955.099 360.918L881.031 302.306L801.297 270.747L801.282 270.741L801.268 270.733L721.572 220.754L620.33 245.655L716.605 313.221L652.519 360.865L619.775 245.699L529.909 202.105L643.076 156.539L592.852 93.8744L652.36 32.6102L578.611 -25.6935L578.825 -25.9641ZM620.219 245.999L652.715 360.29L716.015 313.229L620.219 245.999ZM996.764 107.135L895.46 94.0565L895.504 93.7143L996.808 106.793L996.764 107.135Z" fill="#444444"/>
<path fill-rule="evenodd" clip-rule="evenodd" d="M694.313 107.169L593.06 94.0566L593.104 93.7145L694.459 106.84L752.32 156.471L833.245 202.211L721.364 220.547L643.058 156.541L643.276 156.274L721.462 220.181L832.222 202.029L752.12 156.754L694.313 107.169ZM716.465 313.149L744.815 370.956L744.505 371.108L716.155 313.301L716.465 313.149Z" fill="#444444"/>
<path fill-rule="evenodd" clip-rule="evenodd" d="M716.374 -15.0215L744.749 42.8367L823.145 16.8158L895.824 93.9965L808.617 110.446L752.359 156.721L721.772 220.613L716.499 312.937L801.228 270.46L832.651 201.888L922.581 245.513L881.242 302.278L823.188 345.489L801.253 270.834L716.121 313.513L721.432 220.525L752.081 156.503L808.467 110.123L895.14 93.7743L823.045 17.2126L744.571 43.2591L716.246 -14.4971L652.842 32.6413L694.601 107.036L643.511 156.703L620.079 245.653L578.955 302.123L652.913 360.647L652.699 360.918L578.481 302.188L619.761 245.503L643.201 156.522L694.171 106.974L652.392 32.5455L716.374 -15.0215ZM801.544 270.6L823.38 344.917L880.994 302.033L922.059 245.643L832.817 202.352L801.544 270.6Z" fill="#444444"/>
<path fill-rule="evenodd" clip-rule="evenodd" d="M801.195 -57.3482L801.525 -57.446L823.568 17.1373L881.014 -25.9666L881.221 -25.6907L823.378 17.7112L801.195 -57.3482ZM694.733 106.842L744.796 43.1546L744.524 42.9414L694.039 107.167L808.408 110.453L832.567 202.164L832.901 202.076L808.79 110.551L945.701 156.776L945.811 156.449L808.573 110.113L694.733 106.842ZM643.356 156.44H752.22V156.785H643.356V156.44Z" fill="#444444"/>
<path fill-rule="evenodd" clip-rule="evenodd" d="M652.515 32.4078L619.754 -82.3587L620.086 -82.4534L652.886 32.4503L744.742 42.8836L808.426 109.912L822.901 17.1365L716.261 -14.594L716.359 -14.9246L823.13 16.8446L955.574 32.6686L895.712 93.8968L946.036 156.686L832.97 202.211L881.273 302.08L880.963 302.23L832.498 202.029L945.476 156.539L895.252 93.8741L954.838 32.9281L823.24 17.2052L808.658 110.658L744.578 43.2122L652.831 32.7913L652.64 32.8457L652.618 32.7671L652.598 32.7648L520.864 17.3905L520.904 17.0478L652.515 32.4078ZM506.197 110.121L643.411 156.449L643.301 156.776L506.087 110.448L506.197 110.121ZM716.359 313.06L823.333 345.038L823.235 345.368L716.261 313.39L716.359 313.06Z" fill="#444444"/>
<path d="M895.482 95.9354C896.526 95.9354 897.372 95.0176 897.372 93.8855C897.372 92.7534 896.526 91.8356 895.482 91.8356C894.438 91.8356 893.592 92.7534 893.592 93.8855C893.592 95.0176 894.438 95.9354 895.482 95.9354Z" fill="#555555"/>
<path d="M808.542 112.335C809.586 112.335 810.432 111.417 810.432 110.285C810.432 109.153 809.586 108.235 808.542 108.235C807.498 108.235 806.652 109.153 806.652 110.285C806.652 111.417 807.498 112.335 808.542 112.335Z" fill="#555555"/>
<path d="M832.734 204.17C833.778 204.17 834.624 203.252 834.624 202.12C834.624 200.988 833.778 200.07 832.734 200.07C831.69 200.07 830.844 200.988 830.844 202.12C830.844 203.252 831.69 204.17 832.734 204.17Z" fill="#555555"/>
<path d="M881.118 304.205C882.162 304.205 883.008 303.287 883.008 302.155C883.008 301.023 882.162 300.105 881.118 300.105C880.074 300.105 879.228 301.023 879.228 302.155C879.228 303.287 880.074 304.205 881.118 304.205Z" fill="#555555"/>
<path d="M801.36 272.637C802.404 272.637 803.25 271.719 803.25 270.587C803.25 269.455 802.404 268.537 801.36 268.537C800.316 268.537 799.47 269.455 799.47 270.587C799.47 271.719 800.316 272.637 801.36 272.637Z" fill="#555555"/>
<path d="M721.602 222.619C722.646 222.619 723.492 221.701 723.492 220.569C723.492 219.437 722.646 218.519 721.602 218.519C720.558 218.519 719.712 219.437 719.712 220.569C719.712 221.701 720.558 222.619 721.602 222.619Z" fill="#555555"/>
<path d="M716.31 315.275C717.354 315.275 718.2 314.357 718.2 313.225C718.2 312.093 717.354 311.175 716.31 311.175C715.266 311.175 714.42 312.093 714.42 313.225C714.42 314.357 715.266 315.275 716.31 315.275Z" fill="#555555"/>
<path d="M619.92 247.628C620.964 247.628 621.81 246.71 621.81 245.578C621.81 244.446 620.964 243.528 619.92 243.528C618.876 243.528 618.03 244.446 618.03 245.578C618.03 246.71 618.876 247.628 619.92 247.628Z" fill="#555555"/>
<path d="M643.356 158.662C644.4 158.662 645.246 157.745 645.246 156.612C645.246 155.48 644.4 154.562 643.356 154.562C642.312 154.562 641.466 155.48 641.466 156.612C641.466 157.745 642.312 158.662 643.356 158.662Z" fill="#555555"/>
<path d="M652.806 34.8483C653.85 34.8483 654.696 33.9305 654.696 32.7984C654.696 31.6663 653.85 30.7485 652.806 30.7485C651.762 30.7485 650.916 31.6663 650.916 32.7984C650.916 33.9305 651.762 34.8483 652.806 34.8483Z" fill="#555555"/>
<path d="M744.66 45.0978C745.704 45.0978 746.55 44.18 746.55 43.0479C746.55 41.9158 745.704 40.998 744.66 40.998C743.616 40.998 742.77 41.9158 742.77 43.0479C742.77 44.18 743.616 45.0978 744.66 45.0978Z" fill="#555555"/>
<path d="M823.284 19.2691C824.328 19.2691 825.174 18.3513 825.174 17.2192C825.174 16.087 824.328 15.1693 823.284 15.1693C822.24 15.1693 821.394 16.087 821.394 17.2192C821.394 18.3513 822.24 19.2691 823.284 19.2691Z" fill="#555555"/>
<path d="M694.386 109.055C695.43 109.055 696.276 108.137 696.276 107.005C696.276 105.873 695.43 104.955 694.386 104.955C693.342 104.955 692.496 105.873 692.496 107.005C692.496 108.137 693.342 109.055 694.386 109.055Z" fill="#555555"/>
<path d="M752.22 158.662C753.264 158.662 754.11 157.745 754.11 156.612C754.11 155.48 753.264 154.562 752.22 154.562C751.176 154.562 750.33 155.48 750.33 156.612C750.33 157.745 751.176 158.662 752.22 158.662Z" fill="#555555"/>
</g>
<mask id="mask3_38_2924" style="mask-type:luminance" maskUnits="userSpaceOnUse" x="302" y="0" width="303" height="328">
<path d="M604.8 0H302.4V327.984H604.8V0Z" fill="white"/>
</mask>
<g mask="url(#mask3_38_2924)">
<path d="M604.8 0H302.4V327.984H604.8V0Z" fill="#0D0D0D"/>
<path fill-rule="evenodd" clip-rule="evenodd" d="M276.425 -25.9641L350.474 32.5765L290.912 93.8963L341.236 156.686L228.359 202.135L317.539 245.396L419.232 220.384L499.038 270.432L578.805 302.004L652.913 360.647L652.699 360.918L578.631 302.306L498.897 270.747L498.882 270.741L498.868 270.733L419.172 220.754L317.93 245.655L414.205 313.221L350.119 360.865L317.375 245.699L227.509 202.105L340.676 156.539L290.452 93.8744L349.96 32.6102L276.211 -25.6935L276.425 -25.9641ZM317.819 245.999L350.315 360.29L413.615 313.229L317.819 245.999ZM694.364 107.135L593.06 94.0565L593.104 93.7143L694.408 106.793L694.364 107.135Z" fill="#444444"/>
<path fill-rule="evenodd" clip-rule="evenodd" d="M391.913 107.169L290.66 94.0566L290.704 93.7145L392.059 106.84L449.92 156.471L530.846 202.211L418.964 220.547L340.658 156.541L340.876 156.274L419.062 220.181L529.822 202.029L449.72 156.754L391.913 107.169ZM414.065 313.149L442.415 370.956L442.105 371.108L413.755 313.301L414.065 313.149Z" fill="#444444"/>
<path fill-rule="evenodd" clip-rule="evenodd" d="M413.974 -15.0215L442.349 42.8367L520.745 16.8158L593.424 93.9965L506.217 110.446L449.959 156.721L419.372 220.613L414.099 312.937L498.828 270.46L530.251 201.888L620.181 245.513L578.842 302.278L520.788 345.489L498.853 270.834L413.721 313.513L419.032 220.525L449.681 156.503L506.067 110.123L592.74 93.7743L520.645 17.2126L442.171 43.2591L413.846 -14.4971L350.442 32.6413L392.201 107.036L341.111 156.703L317.679 245.653L276.555 302.123L350.513 360.647L350.299 360.918L276.081 302.188L317.361 245.503L340.801 156.522L391.771 106.974L349.992 32.5455L413.974 -15.0215ZM499.144 270.6L520.98 344.917L578.594 302.033L619.659 245.643L530.417 202.352L499.144 270.6Z" fill="#444444"/>
<path fill-rule="evenodd" clip-rule="evenodd" d="M498.795 -57.3482L499.125 -57.446L521.168 17.1373L578.614 -25.9666L578.822 -25.6907L520.978 17.7112L498.795 -57.3482ZM392.333 106.842L442.396 43.1546L442.124 42.9414L391.639 107.167L506.008 110.453L530.167 202.164L530.501 202.076L506.39 110.551L643.301 156.776L643.411 156.449L506.173 110.113L392.333 106.842ZM340.956 156.44H449.82V156.785H340.956V156.44Z" fill="#444444"/>
<path fill-rule="evenodd" clip-rule="evenodd" d="M350.115 32.4078L317.354 -82.3587L317.686 -82.4534L350.486 32.4503L442.342 42.8836L506.026 109.912L520.501 17.1365L413.861 -14.594L413.959 -14.9246L520.73 16.8446L653.174 32.6686L593.312 93.8968L643.636 156.686L530.57 202.211L578.873 302.08L578.563 302.23L530.098 202.029L643.076 156.539L592.852 93.8741L652.438 32.9281L520.84 17.2052L506.258 110.658L442.178 43.2122L350.431 32.7913L350.24 32.8457L350.218 32.7671L350.198 32.7648L218.464 17.3905L218.504 17.0478L350.115 32.4078ZM203.797 110.121L341.011 156.449L340.901 156.776L203.687 110.448L203.797 110.121ZM413.959 313.06L520.933 345.038L520.835 345.368L413.861 313.39L413.959 313.06Z" fill="#444444"/>
<path d="M593.082 95.9354C594.126 95.9354 594.972 95.0176 594.972 93.8855C594.972 92.7534 594.126 91.8356 593.082 91.8356C592.038 91.8356 591.192 92.7534 591.192 93.8855C591.192 95.0176 592.038 95.9354 593.082 95.9354Z" fill="#555555"/>
<path d="M506.142 112.335C507.186 112.335 508.032 111.417 508.032 110.285C508.032 109.153 507.186 108.235 506.142 108.235C505.098 108.235 504.252 109.153 504.252 110.285C504.252 111.417 505.098 112.335 506.142 112.335Z" fill="#555555"/>
<path d="M530.334 204.17C531.378 204.17 532.224 203.252 532.224 202.12C532.224 200.988 531.378 200.07 530.334 200.07C529.29 200.07 528.444 200.988 528.444 202.12C528.444 203.252 529.29 204.17 530.334 204.17Z" fill="#555555"/>
<path d="M578.718 304.205C579.762 304.205 580.608 303.287 580.608 302.155C580.608 301.023 579.762 300.105 578.718 300.105C577.674 300.105 576.828 301.023 576.828 302.155C576.828 303.287 577.674 304.205 578.718 304.205Z" fill="#555555"/>
<path d="M498.96 272.637C500.004 272.637 500.85 271.719 500.85 270.587C500.85 269.455 500.004 268.537 498.96 268.537C497.916 268.537 497.07 269.455 497.07 270.587C497.07 271.719 497.916 272.637 498.96 272.637Z" fill="#555555"/>
<path d="M419.202 222.619C420.246 222.619 421.092 221.701 421.092 220.569C421.092 219.437 420.246 218.519 419.202 218.519C418.158 218.519 417.312 219.437 417.312 220.569C417.312 221.701 418.158 222.619 419.202 222.619Z" fill="#555555"/>
<path d="M413.91 315.275C414.954 315.275 415.8 314.357 415.8 313.225C415.8 312.093 414.954 311.175 413.91 311.175C412.866 311.175 412.02 312.093 412.02 313.225C412.02 314.357 412.866 315.275 413.91 315.275Z" fill="#555555"/>
<path d="M317.52 247.628C318.564 247.628 319.41 246.71 319.41 245.578C319.41 244.446 318.564 243.528 317.52 243.528C316.476 243.528 315.63 244.446 315.63 245.578C315.63 246.71 316.476 247.628 317.52 247.628Z" fill="#555555"/>
<path d="M340.956 158.662C342 158.662 342.846 157.745 342.846 156.612C342.846 155.48 342 154.562 340.956 154.562C339.912 154.562 339.066 155.48 339.066 156.612C339.066 157.745 339.912 158.662 340.956 158.662Z" fill="#555555"/>
<path d="M350.406 34.8483C351.45 34.8483 352.296 33.9305 352.296 32.7984C352.296 31.6663 351.45 30.7485 350.406 30.7485C349.362 30.7485 348.516 31.6663 348.516 32.7984C348.516 33.9305 349.362 34.8483 350.406 34.8483Z" fill="#555555"/>
<path d="M442.26 45.0978C443.304 45.0978 444.15 44.18 444.15 43.0479C444.15 41.9158 443.304 40.998 442.26 40.998C441.216 40.998 440.37 41.9158 440.37 43.0479C440.37 44.18 441.216 45.0978 442.26 45.0978Z" fill="#555555"/>
<path d="M520.884 19.2691C521.928 19.2691 522.774 18.3513 522.774 17.2192C522.774 16.087 521.928 15.1693 520.884 15.1693C519.84 15.1693 518.994 16.087 518.994 17.2192C518.994 18.3513 519.84 19.2691 520.884 19.2691Z" fill="#555555"/>
<path d="M391.986 109.055C393.03 109.055 393.876 108.137 393.876 107.005C393.876 105.873 393.03 104.955 391.986 104.955C390.942 104.955 390.096 105.873 390.096 107.005C390.096 108.137 390.942 109.055 391.986 109.055Z" fill="#555555"/>
<path d="M449.82 158.662C450.864 158.662 451.71 157.745 451.71 156.612C451.71 155.48 450.864 154.562 449.82 154.562C448.776 154.562 447.93 155.48 447.93 156.612C447.93 157.745 448.776 158.662 449.82 158.662Z" fill="#555555"/>
</g>
<mask id="mask4_38_2924" style="mask-type:luminance" maskUnits="userSpaceOnUse" x="0" y="0" width="303" height="328">
<path d="M302.4 0H0V327.984H302.4V0Z" fill="white"/>
</mask>
<g mask="url(#mask4_38_2924)">
<path d="M302.4 0H0V327.984H302.4V0Z" fill="#0D0D0D"/>
<path fill-rule="evenodd" clip-rule="evenodd" d="M-25.9751 -25.9641L48.0738 32.5765L-11.4882 93.8963L38.8358 156.686L-74.0406 202.135L15.1392 245.396L116.832 220.384L196.638 270.432L276.405 302.004L350.513 360.647L350.299 360.918L276.231 302.306L196.496 270.747L196.482 270.741L196.468 270.733L116.772 220.754L15.5298 245.655L111.805 313.221L47.7194 360.865L14.9752 245.699L-74.8915 202.105L38.2762 156.539L-11.9479 93.8744L47.5601 32.6102L-26.189 -25.6935L-25.9751 -25.9641ZM15.4189 245.999L47.9146 360.29L111.215 313.229L15.4189 245.999ZM391.964 107.135L290.66 94.0565L290.704 93.7143L392.008 106.793L391.964 107.135Z" fill="#444444"/>
<path fill-rule="evenodd" clip-rule="evenodd" d="M89.5128 107.169L-11.7402 94.0566L-11.6959 93.7145L89.6592 106.84L147.52 156.471L228.445 202.211L116.564 220.547L38.2578 156.541L38.4762 156.274L116.662 220.181L227.422 202.029L147.32 156.754L89.5128 107.169ZM111.665 313.149L140.015 370.956L139.705 371.108L111.355 313.301L111.665 313.149Z" fill="#444444"/>
<path fill-rule="evenodd" clip-rule="evenodd" d="M111.574 -15.0215L139.949 42.8367L218.345 16.8158L291.024 93.9965L203.817 110.446L147.559 156.721L116.972 220.613L111.699 312.937L196.428 270.46L227.851 201.888L317.781 245.513L276.442 302.278L218.388 345.489L196.453 270.834L111.321 313.513L116.632 220.525L147.281 156.503L203.667 110.123L290.34 93.7743L218.245 17.2126L139.771 43.2591L111.446 -14.4971L48.0417 32.6413L89.8013 107.036L38.7106 156.703L15.2785 245.653L-25.845 302.123L48.113 360.647L47.8989 360.918L-26.319 302.188L14.9614 245.503L38.4014 156.522L89.3706 106.974L47.5923 32.5455L111.574 -15.0215ZM196.744 270.6L218.58 344.917L276.194 302.033L317.259 245.643L228.017 202.352L196.744 270.6Z" fill="#444444"/>
<path fill-rule="evenodd" clip-rule="evenodd" d="M196.395 -57.3482L196.725 -57.446L218.768 17.1373L276.214 -25.9666L276.421 -25.6907L218.578 17.7112L196.395 -57.3482ZM89.9332 106.842L139.996 43.1546L139.724 42.9414L89.2387 107.167L203.608 110.453L227.767 202.164L228.101 202.076L203.99 110.551L340.901 156.776L341.011 156.449L203.773 110.113L89.9332 106.842ZM38.556 156.44H147.42V156.785H38.556V156.44Z" fill="#444444"/>
<path fill-rule="evenodd" clip-rule="evenodd" d="M47.7151 32.4078L14.9541 -82.3587L15.2859 -82.4534L48.086 32.4503L139.942 42.8836L203.626 109.912L218.101 17.1365L111.461 -14.594L111.559 -14.9246L218.33 16.8446L350.774 32.6686L290.912 93.8968L341.236 156.686L228.17 202.211L276.473 302.08L276.163 302.23L227.698 202.029L340.676 156.539L290.452 93.8741L350.038 32.9281L218.44 17.2052L203.858 110.658L139.778 43.2122L48.0308 32.7913L47.8401 32.8457L47.8176 32.7671L47.7975 32.7648L-83.936 17.3905L-83.896 17.0478L47.7151 32.4078ZM-98.6028 110.121L38.6111 156.449L38.5008 156.776L-98.7132 110.448L-98.6028 110.121ZM111.559 313.06L218.533 345.038L218.435 345.368L111.461 313.39L111.559 313.06Z" fill="#444444"/>
<path d="M290.682 95.9354C291.726 95.9354 292.572 95.0176 292.572 93.8855C292.572 92.7534 291.726 91.8356 290.682 91.8356C289.638 91.8356 288.792 92.7534 288.792 93.8855C288.792 95.0176 289.638 95.9354 290.682 95.9354Z" fill="#555555"/>
<path d="M203.742 112.335C204.786 112.335 205.632 111.417 205.632 110.285C205.632 109.153 204.786 108.235 203.742 108.235C202.698 108.235 201.852 109.153 201.852 110.285C201.852 111.417 202.698 112.335 203.742 112.335Z" fill="#555555"/>
<path d="M227.934 204.17C228.978 204.17 229.824 203.252 229.824 202.12C229.824 200.988 228.978 200.07 227.934 200.07C226.89 200.07 226.044 200.988 226.044 202.12C226.044 203.252 226.89 204.17 227.934 204.17Z" fill="#555555"/>
<path d="M276.318 304.205C277.362 304.205 278.208 303.287 278.208 302.155C278.208 301.023 277.362 300.105 276.318 300.105C275.274 300.105 274.428 301.023 274.428 302.155C274.428 303.287 275.274 304.205 276.318 304.205Z" fill="#555555"/>
<path d="M196.56 272.637C197.604 272.637 198.45 271.719 198.45 270.587C198.45 269.455 197.604 268.537 196.56 268.537C195.516 268.537 194.67 269.455 194.67 270.587C194.67 271.719 195.516 272.637 196.56 272.637Z" fill="#555555"/>
<path d="M116.802 222.619C117.846 222.619 118.692 221.701 118.692 220.569C118.692 219.437 117.846 218.519 116.802 218.519C115.758 218.519 114.912 219.437 114.912 220.569C114.912 221.701 115.758 222.619 116.802 222.619Z" fill="#555555"/>
<path d="M111.51 315.275C112.554 315.275 113.4 314.357 113.4 313.225C113.4 312.093 112.554 311.175 111.51 311.175C110.466 311.175 109.62 312.093 109.62 313.225C109.62 314.357 110.466 315.275 111.51 315.275Z" fill="#555555"/>
<path d="M15.12 247.628C16.1638 247.628 17.01 246.71 17.01 245.578C17.01 244.446 16.1638 243.528 15.12 243.528C14.0762 243.528 13.23 244.446 13.23 245.578C13.23 246.71 14.0762 247.628 15.12 247.628Z" fill="#555555"/>
<path d="M38.556 158.662C39.5998 158.662 40.446 157.745 40.446 156.612C40.446 155.48 39.5998 154.562 38.556 154.562C37.5121 154.562 36.666 155.48 36.666 156.612C36.666 157.745 37.5121 158.662 38.556 158.662Z" fill="#555555"/>
<path d="M48.006 34.8483C49.0498 34.8483 49.896 33.9305 49.896 32.7984C49.896 31.6663 49.0498 30.7485 48.006 30.7485C46.9621 30.7485 46.116 31.6663 46.116 32.7984C46.116 33.9305 46.9621 34.8483 48.006 34.8483Z" fill="#555555"/>
<path d="M139.86 45.0978C140.904 45.0978 141.75 44.18 141.75 43.0479C141.75 41.9158 140.904 40.998 139.86 40.998C138.816 40.998 137.97 41.9158 137.97 43.0479C137.97 44.18 138.816 45.0978 139.86 45.0978Z" fill="#555555"/>
<path d="M218.484 19.2691C219.528 19.2691 220.374 18.3513 220.374 17.2192C220.374 16.087 219.528 15.1693 218.484 15.1693C217.44 15.1693 216.594 16.087 216.594 17.2192C216.594 18.3513 217.44 19.2691 218.484 19.2691Z" fill="#555555"/>
<path d="M89.586 109.055C90.6298 109.055 91.476 108.137 91.476 107.005C91.476 105.873 90.6298 104.955 89.586 104.955C88.5422 104.955 87.696 105.873 87.696 107.005C87.696 108.137 88.5422 109.055 89.586 109.055Z" fill="#555555"/>
<path d="M147.42 158.662C148.464 158.662 149.31 157.745 149.31 156.612C149.31 155.48 148.464 154.562 147.42 154.562C146.376 154.562 145.53 155.48 145.53 156.612C145.53 157.745 146.376 158.662 147.42 158.662Z" fill="#555555"/>
</g>
<mask id="mask5_38_2924" style="mask-type:luminance" maskUnits="userSpaceOnUse" x="1209" y="326" width="303" height="329">
<path d="M1512 326.466H1209.6V654.45H1512V326.466Z" fill="white"/>
</mask>
<g mask="url(#mask5_38_2924)">
<path d="M1512 326.466H1209.6V654.45H1512V326.466Z" fill="#0D0D0D"/>
<path fill-rule="evenodd" clip-rule="evenodd" d="M1183.62 300.502L1257.67 359.042L1198.11 420.362L1248.44 483.151L1135.56 528.6L1224.74 571.861L1326.43 546.85L1406.24 596.898L1486.01 628.47L1560.11 687.113L1559.9 687.383L1485.83 628.772L1406.1 597.213L1406.08 597.207L1406.07 597.199L1326.37 547.22L1225.13 572.121L1321.4 639.686L1257.32 687.331L1224.58 572.165L1134.71 528.571L1247.88 483.005L1197.65 420.34L1257.16 359.076L1183.41 300.772L1183.62 300.502ZM1225.02 572.464L1257.51 686.756L1320.82 639.694L1225.02 572.464ZM1601.56 433.601L1500.26 420.522L1500.3 420.18L1601.61 433.258L1601.56 433.601Z" fill="#444444"/>
<path fill-rule="evenodd" clip-rule="evenodd" d="M1299.11 433.635L1197.86 420.522L1197.9 420.18L1299.26 433.306L1357.12 482.936L1438.05 528.677L1326.16 547.013L1247.86 483.007L1248.08 482.739L1326.26 546.647L1437.02 528.495L1356.92 483.22L1299.11 433.635ZM1321.26 639.614L1349.61 697.422L1349.31 697.574L1320.96 639.766L1321.26 639.614Z" fill="#444444"/>
<path fill-rule="evenodd" clip-rule="evenodd" d="M1321.17 311.444L1349.55 369.302L1427.95 343.281L1500.62 420.462L1413.42 436.912L1357.16 483.187L1326.57 547.079L1321.3 639.403L1406.03 596.925L1437.45 528.354L1527.38 571.979L1486.04 628.744L1427.99 671.955L1406.05 597.299L1320.92 639.978L1326.23 546.991L1356.88 482.969L1413.27 436.589L1499.94 420.24L1427.84 343.678L1349.37 369.725L1321.05 311.969L1257.64 359.107L1299.4 433.502L1248.31 483.168L1224.88 572.119L1183.75 628.589L1257.71 687.113L1257.5 687.383L1183.28 628.653L1224.56 571.968L1248 482.988L1298.97 433.439L1257.19 359.011L1321.17 311.444ZM1406.34 597.066L1428.18 671.383L1485.79 628.498L1526.86 572.109L1437.62 528.818L1406.34 597.066Z" fill="#444444"/>
<path fill-rule="evenodd" clip-rule="evenodd" d="M1405.99 269.117L1406.33 269.02L1428.37 343.603L1485.81 300.499L1486.02 300.775L1428.18 344.177L1405.99 269.117ZM1299.53 433.308L1349.6 369.62L1349.32 369.407L1298.84 433.633L1413.21 436.919L1437.37 528.63L1437.7 528.542L1413.59 437.016L1550.5 483.241L1550.61 482.915L1413.37 436.579L1299.53 433.308ZM1248.16 482.906H1357.02V483.251H1248.16V482.906Z" fill="#444444"/>
<path fill-rule="evenodd" clip-rule="evenodd" d="M1257.32 358.874L1224.55 244.107L1224.89 244.012L1257.69 358.916L1349.54 369.349L1413.23 436.377L1427.7 343.602L1321.06 311.872L1321.16 311.541L1427.93 343.31L1560.37 359.134L1500.51 420.362L1550.84 483.151L1437.77 528.677L1486.07 628.546L1485.76 628.696L1437.3 528.495L1550.28 483.005L1500.05 420.34L1559.64 359.394L1428.04 343.671L1413.46 437.123L1349.38 369.678L1257.63 359.257L1257.44 359.311L1257.42 359.233L1257.4 359.23L1125.66 343.856L1125.7 343.513L1257.32 358.874ZM1111 436.587L1248.21 482.915L1248.1 483.241L1110.89 436.914L1111 436.587ZM1321.16 639.525L1428.13 671.504L1428.03 671.834L1321.06 639.856L1321.16 639.525Z" fill="#444444"/>
<path d="M1500.28 422.401C1501.33 422.401 1502.17 421.483 1502.17 420.351C1502.17 419.219 1501.33 418.301 1500.28 418.301C1499.24 418.301 1498.39 419.219 1498.39 420.351C1498.39 421.483 1499.24 422.401 1500.28 422.401Z" fill="#555555"/>
<path d="M1413.34 438.8C1414.39 438.8 1415.23 437.882 1415.23 436.75C1415.23 435.618 1414.39 434.7 1413.34 434.7C1412.3 434.7 1411.45 435.618 1411.45 436.75C1411.45 437.882 1412.3 438.8 1413.34 438.8Z" fill="#555555"/>
<path d="M1437.53 530.636C1438.58 530.636 1439.42 529.718 1439.42 528.586C1439.42 527.454 1438.58 526.536 1437.53 526.536C1436.49 526.536 1435.64 527.454 1435.64 528.586C1435.64 529.718 1436.49 530.636 1437.53 530.636Z" fill="#555555"/>
<path d="M1485.92 630.671C1486.96 630.671 1487.81 629.753 1487.81 628.621C1487.81 627.489 1486.96 626.571 1485.92 626.571C1484.87 626.571 1484.03 627.489 1484.03 628.621C1484.03 629.753 1484.87 630.671 1485.92 630.671Z" fill="#555555"/>
<path d="M1406.16 599.102C1407.2 599.102 1408.05 598.185 1408.05 597.053C1408.05 595.92 1407.2 595.003 1406.16 595.003C1405.12 595.003 1404.27 595.92 1404.27 597.053C1404.27 598.185 1405.12 599.102 1406.16 599.102Z" fill="#555555"/>
<path d="M1326.4 549.085C1327.45 549.085 1328.29 548.167 1328.29 547.035C1328.29 545.903 1327.45 544.985 1326.4 544.985C1325.36 544.985 1324.51 545.903 1324.51 547.035C1324.51 548.167 1325.36 549.085 1326.4 549.085Z" fill="#555555"/>
<path d="M1321.11 641.74C1322.15 641.74 1323 640.823 1323 639.69C1323 638.558 1322.15 637.641 1321.11 637.641C1320.07 637.641 1319.22 638.558 1319.22 639.69C1319.22 640.823 1320.07 641.74 1321.11 641.74Z" fill="#555555"/>
<path d="M1224.72 574.094C1225.76 574.094 1226.61 573.176 1226.61 572.044C1226.61 570.912 1225.76 569.994 1224.72 569.994C1223.68 569.994 1222.83 570.912 1222.83 572.044C1222.83 573.176 1223.68 574.094 1224.72 574.094Z" fill="#555555"/>
<path d="M1248.16 485.128C1249.2 485.128 1250.05 484.21 1250.05 483.078C1250.05 481.946 1249.2 481.028 1248.16 481.028C1247.11 481.028 1246.27 481.946 1246.27 483.078C1246.27 484.21 1247.11 485.128 1248.16 485.128Z" fill="#555555"/>
<path d="M1257.61 361.314C1258.65 361.314 1259.5 360.396 1259.5 359.264C1259.5 358.132 1258.65 357.214 1257.61 357.214C1256.56 357.214 1255.72 358.132 1255.72 359.264C1255.72 360.396 1256.56 361.314 1257.61 361.314Z" fill="#555555"/>
<path d="M1349.46 371.563C1350.5 371.563 1351.35 370.646 1351.35 369.514C1351.35 368.381 1350.5 367.464 1349.46 367.464C1348.42 367.464 1347.57 368.381 1347.57 369.514C1347.57 370.646 1348.42 371.563 1349.46 371.563Z" fill="#555555"/>
<path d="M1428.08 345.735C1429.13 345.735 1429.97 344.817 1429.97 343.685C1429.97 342.553 1429.13 341.635 1428.08 341.635C1427.04 341.635 1426.19 342.553 1426.19 343.685C1426.19 344.817 1427.04 345.735 1428.08 345.735Z" fill="#555555"/>
<path d="M1299.19 435.52C1300.23 435.52 1301.08 434.603 1301.08 433.47C1301.08 432.338 1300.23 431.421 1299.19 431.421C1298.14 431.421 1297.3 432.338 1297.3 433.47C1297.3 434.603 1298.14 435.52 1299.19 435.52Z" fill="#555555"/>
<path d="M1357.02 485.128C1358.06 485.128 1358.91 484.21 1358.91 483.078C1358.91 481.946 1358.06 481.028 1357.02 481.028C1355.98 481.028 1355.13 481.946 1355.13 483.078C1355.13 484.21 1355.98 485.128 1357.02 485.128Z" fill="#555555"/>
</g>
<mask id="mask6_38_2924" style="mask-type:luminance" maskUnits="userSpaceOnUse" x="907" y="326" width="303" height="329">
<path d="M1209.6 326.466H907.2V654.45H1209.6V326.466Z" fill="white"/>
</mask>
<g mask="url(#mask6_38_2924)">
<path d="M1209.6 326.466H907.2V654.45H1209.6V326.466Z" fill="#0D0D0D"/>
<path fill-rule="evenodd" clip-rule="evenodd" d="M881.225 300.502L955.274 359.042L895.712 420.362L946.036 483.151L833.159 528.6L922.339 571.861L1024.03 546.85L1103.84 596.898L1183.61 628.47L1257.71 687.113L1257.5 687.383L1183.43 628.772L1103.7 597.213L1103.68 597.207L1103.67 597.199L1023.97 547.22L922.73 572.121L1019 639.686L954.919 687.331L922.175 572.165L832.309 528.571L945.476 483.005L895.252 420.34L954.76 359.076L881.011 300.772L881.225 300.502ZM922.619 572.464L955.115 686.756L1018.42 639.694L922.619 572.464ZM1299.16 433.601L1197.86 420.522L1197.9 420.18L1299.21 433.258L1299.16 433.601Z" fill="#444444"/>
<path fill-rule="evenodd" clip-rule="evenodd" d="M996.713 433.635L895.46 420.522L895.504 420.18L996.859 433.306L1054.72 482.936L1135.65 528.677L1023.76 547.013L945.458 483.007L945.676 482.739L1023.86 546.647L1134.62 528.495L1054.52 483.22L996.713 433.635ZM1018.86 639.614L1047.21 697.422L1046.91 697.574L1018.56 639.766L1018.86 639.614Z" fill="#444444"/>
<path fill-rule="evenodd" clip-rule="evenodd" d="M1018.77 311.444L1047.15 369.302L1125.55 343.281L1198.22 420.462L1111.02 436.912L1054.76 483.187L1024.17 547.079L1018.9 639.403L1103.63 596.925L1135.05 528.354L1224.98 571.979L1183.64 628.744L1125.59 671.955L1103.65 597.299L1018.52 639.978L1023.83 546.991L1054.48 482.969L1110.87 436.589L1197.54 420.24L1125.44 343.678L1046.97 369.725L1018.65 311.969L955.242 359.107L997.001 433.502L945.911 483.168L922.479 572.119L881.355 628.589L955.313 687.113L955.099 687.383L880.881 628.653L922.161 571.968L945.601 482.988L996.571 433.439L954.792 359.011L1018.77 311.444ZM1103.94 597.066L1125.78 671.383L1183.39 628.498L1224.46 572.109L1135.22 528.818L1103.94 597.066Z" fill="#444444"/>
<path fill-rule="evenodd" clip-rule="evenodd" d="M1103.59 269.117L1103.93 269.02L1125.97 343.603L1183.41 300.499L1183.62 300.775L1125.78 344.177L1103.59 269.117ZM997.133 433.308L1047.2 369.62L1046.92 369.407L996.439 433.633L1110.81 436.919L1134.97 528.63L1135.3 528.542L1111.19 437.016L1248.1 483.241L1248.21 482.915L1110.97 436.579L997.133 433.308ZM945.756 482.906H1054.62V483.251H945.756V482.906Z" fill="#444444"/>
<path fill-rule="evenodd" clip-rule="evenodd" d="M954.915 358.874L922.154 244.107L922.486 244.012L955.286 358.916L1047.14 369.349L1110.83 436.377L1125.3 343.602L1018.66 311.872L1018.76 311.541L1125.53 343.31L1257.97 359.134L1198.11 420.362L1248.44 483.151L1135.37 528.677L1183.67 628.546L1183.36 628.696L1134.9 528.495L1247.88 483.005L1197.65 420.34L1257.24 359.394L1125.64 343.671L1111.06 437.123L1046.98 369.678L955.231 359.257L955.04 359.311L955.018 359.233L954.998 359.23L823.264 343.856L823.304 343.513L954.915 358.874ZM808.597 436.587L945.811 482.915L945.701 483.241L808.487 436.914L808.597 436.587ZM1018.76 639.525L1125.73 671.504L1125.63 671.834L1018.66 639.856L1018.76 639.525Z" fill="#444444"/>
<path d="M1197.88 422.401C1198.93 422.401 1199.77 421.483 1199.77 420.351C1199.77 419.219 1198.93 418.301 1197.88 418.301C1196.84 418.301 1195.99 419.219 1195.99 420.351C1195.99 421.483 1196.84 422.401 1197.88 422.401Z" fill="#555555"/>
<path d="M1110.94 438.8C1111.99 438.8 1112.83 437.882 1112.83 436.75C1112.83 435.618 1111.99 434.7 1110.94 434.7C1109.9 434.7 1109.05 435.618 1109.05 436.75C1109.05 437.882 1109.9 438.8 1110.94 438.8Z" fill="#555555"/>
<path d="M1135.13 530.636C1136.18 530.636 1137.02 529.718 1137.02 528.586C1137.02 527.454 1136.18 526.536 1135.13 526.536C1134.09 526.536 1133.24 527.454 1133.24 528.586C1133.24 529.718 1134.09 530.636 1135.13 530.636Z" fill="#555555"/>
<path d="M1183.52 630.671C1184.56 630.671 1185.41 629.753 1185.41 628.621C1185.41 627.489 1184.56 626.571 1183.52 626.571C1182.47 626.571 1181.63 627.489 1181.63 628.621C1181.63 629.753 1182.47 630.671 1183.52 630.671Z" fill="#555555"/>
<path d="M1103.76 599.102C1104.8 599.102 1105.65 598.185 1105.65 597.053C1105.65 595.92 1104.8 595.003 1103.76 595.003C1102.72 595.003 1101.87 595.92 1101.87 597.053C1101.87 598.185 1102.72 599.102 1103.76 599.102Z" fill="#555555"/>
<path d="M1024 549.085C1025.05 549.085 1025.89 548.167 1025.89 547.035C1025.89 545.903 1025.05 544.985 1024 544.985C1022.96 544.985 1022.11 545.903 1022.11 547.035C1022.11 548.167 1022.96 549.085 1024 549.085Z" fill="#555555"/>
<path d="M1018.71 641.74C1019.75 641.74 1020.6 640.823 1020.6 639.69C1020.6 638.558 1019.75 637.641 1018.71 637.641C1017.67 637.641 1016.82 638.558 1016.82 639.69C1016.82 640.823 1017.67 641.74 1018.71 641.74Z" fill="#555555"/>
<path d="M922.32 574.094C923.364 574.094 924.21 573.176 924.21 572.044C924.21 570.912 923.364 569.994 922.32 569.994C921.276 569.994 920.43 570.912 920.43 572.044C920.43 573.176 921.276 574.094 922.32 574.094Z" fill="#555555"/>
<path d="M945.756 485.128C946.8 485.128 947.646 484.21 947.646 483.078C947.646 481.946 946.8 481.028 945.756 481.028C944.712 481.028 943.866 481.946 943.866 483.078C943.866 484.21 944.712 485.128 945.756 485.128Z" fill="#555555"/>
<path d="M955.206 361.314C956.25 361.314 957.096 360.396 957.096 359.264C957.096 358.132 956.25 357.214 955.206 357.214C954.162 357.214 953.316 358.132 953.316 359.264C953.316 360.396 954.162 361.314 955.206 361.314Z" fill="#555555"/>
<path d="M1047.06 371.563C1048.1 371.563 1048.95 370.646 1048.95 369.514C1048.95 368.381 1048.1 367.464 1047.06 367.464C1046.02 367.464 1045.17 368.381 1045.17 369.514C1045.17 370.646 1046.02 371.563 1047.06 371.563Z" fill="#555555"/>
<path d="M1125.68 345.735C1126.73 345.735 1127.57 344.817 1127.57 343.685C1127.57 342.553 1126.73 341.635 1125.68 341.635C1124.64 341.635 1123.79 342.553 1123.79 343.685C1123.79 344.817 1124.64 345.735 1125.68 345.735Z" fill="#555555"/>
<path d="M996.786 435.52C997.83 435.52 998.676 434.603 998.676 433.47C998.676 432.338 997.83 431.421 996.786 431.421C995.742 431.421 994.896 432.338 994.896 433.47C994.896 434.603 995.742 435.52 996.786 435.52Z" fill="#555555"/>
<path d="M1054.62 485.128C1055.66 485.128 1056.51 484.21 1056.51 483.078C1056.51 481.946 1055.66 481.028 1054.62 481.028C1053.58 481.028 1052.73 481.946 1052.73 483.078C1052.73 484.21 1053.58 485.128 1054.62 485.128Z" fill="#555555"/>
</g>
<mask id="mask7_38_2924" style="mask-type:luminance" maskUnits="userSpaceOnUse" x="604" y="326" width="304" height="329">
<path d="M907.2 326.466H604.8V654.45H907.2V326.466Z" fill="white"/>
</mask>
<g mask="url(#mask7_38_2924)">
<path d="M907.2 326.466H604.8V654.45H907.2V326.466Z" fill="#0D0D0D"/>
<path fill-rule="evenodd" clip-rule="evenodd" d="M578.825 300.502L652.874 359.042L593.312 420.362L643.636 483.151L530.759 528.6L619.939 571.861L721.632 546.85L801.438 596.898L881.205 628.47L955.313 687.113L955.099 687.383L881.031 628.772L801.297 597.213L801.282 597.207L801.268 597.199L721.572 547.22L620.33 572.121L716.605 639.686L652.519 687.331L619.775 572.165L529.909 528.571L643.076 483.005L592.852 420.34L652.36 359.076L578.611 300.772L578.825 300.502ZM620.219 572.464L652.715 686.756L716.015 639.694L620.219 572.464ZM996.764 433.601L895.46 420.522L895.504 420.18L996.808 433.258L996.764 433.601Z" fill="#444444"/>
<path fill-rule="evenodd" clip-rule="evenodd" d="M694.313 433.635L593.06 420.522L593.104 420.18L694.459 433.306L752.32 482.936L833.245 528.677L721.364 547.013L643.058 483.007L643.276 482.739L721.462 546.647L832.222 528.495L752.12 483.22L694.313 433.635ZM716.465 639.614L744.815 697.422L744.505 697.574L716.155 639.766L716.465 639.614Z" fill="#444444"/>
<path fill-rule="evenodd" clip-rule="evenodd" d="M716.374 311.444L744.749 369.302L823.145 343.281L895.824 420.462L808.617 436.912L752.359 483.187L721.772 547.079L716.499 639.403L801.228 596.925L832.651 528.354L922.581 571.979L881.242 628.744L823.188 671.955L801.253 597.299L716.121 639.978L721.432 546.991L752.081 482.969L808.467 436.589L895.14 420.24L823.045 343.678L744.571 369.725L716.246 311.969L652.842 359.107L694.601 433.502L643.511 483.168L620.079 572.119L578.955 628.589L652.913 687.113L652.699 687.383L578.481 628.653L619.761 571.968L643.201 482.988L694.171 433.439L652.392 359.011L716.374 311.444ZM801.544 597.066L823.38 671.383L880.994 628.498L922.059 572.109L832.817 528.818L801.544 597.066Z" fill="#444444"/>
<path fill-rule="evenodd" clip-rule="evenodd" d="M801.195 269.117L801.525 269.02L823.568 343.603L881.014 300.499L881.221 300.775L823.378 344.177L801.195 269.117ZM694.733 433.308L744.796 369.62L744.524 369.407L694.039 433.633L808.408 436.919L832.567 528.63L832.901 528.542L808.79 437.016L945.701 483.241L945.811 482.915L808.573 436.579L694.733 433.308ZM643.356 482.906H752.22V483.251H643.356V482.906Z" fill="#444444"/>
<path fill-rule="evenodd" clip-rule="evenodd" d="M652.515 358.874L619.754 244.107L620.086 244.012L652.886 358.916L744.742 369.349L808.426 436.377L822.901 343.602L716.261 311.872L716.359 311.541L823.13 343.31L955.574 359.134L895.712 420.362L946.036 483.151L832.97 528.677L881.273 628.546L880.963 628.696L832.498 528.495L945.476 483.005L895.252 420.34L954.838 359.394L823.24 343.671L808.658 437.123L744.578 369.678L652.831 359.257L652.64 359.311L652.618 359.233L652.598 359.23L520.864 343.856L520.904 343.513L652.515 358.874ZM506.197 436.587L643.411 482.915L643.301 483.241L506.087 436.914L506.197 436.587ZM716.359 639.525L823.333 671.504L823.235 671.834L716.261 639.856L716.359 639.525Z" fill="#444444"/>
<path d="M895.482 422.401C896.526 422.401 897.372 421.483 897.372 420.351C897.372 419.219 896.526 418.301 895.482 418.301C894.438 418.301 893.592 419.219 893.592 420.351C893.592 421.483 894.438 422.401 895.482 422.401Z" fill="#555555"/>
<path d="M808.542 438.8C809.586 438.8 810.432 437.882 810.432 436.75C810.432 435.618 809.586 434.7 808.542 434.7C807.498 434.7 806.652 435.618 806.652 436.75C806.652 437.882 807.498 438.8 808.542 438.8Z" fill="#555555"/>
<path d="M832.734 530.636C833.778 530.636 834.624 529.718 834.624 528.586C834.624 527.454 833.778 526.536 832.734 526.536C831.69 526.536 830.844 527.454 830.844 528.586C830.844 529.718 831.69 530.636 832.734 530.636Z" fill="#555555"/>
<path d="M881.118 630.671C882.162 630.671 883.008 629.753 883.008 628.621C883.008 627.489 882.162 626.571 881.118 626.571C880.074 626.571 879.228 627.489 879.228 628.621C879.228 629.753 880.074 630.671 881.118 630.671Z" fill="#555555"/>
<path d="M801.36 599.102C802.404 599.102 803.25 598.185 803.25 597.053C803.25 595.92 802.404 595.003 801.36 595.003C800.316 595.003 799.47 595.92 799.47 597.053C799.47 598.185 800.316 599.102 801.36 599.102Z" fill="#555555"/>
<path d="M721.602 549.085C722.646 549.085 723.492 548.167 723.492 547.035C723.492 545.903 722.646 544.985 721.602 544.985C720.558 544.985 719.712 545.903 719.712 547.035C719.712 548.167 720.558 549.085 721.602 549.085Z" fill="#555555"/>
<path d="M716.31 641.74C717.354 641.74 718.2 640.823 718.2 639.69C718.2 638.558 717.354 637.641 716.31 637.641C715.266 637.641 714.42 638.558 714.42 639.69C714.42 640.823 715.266 641.74 716.31 641.74Z" fill="#555555"/>
<path d="M619.92 574.094C620.964 574.094 621.81 573.176 621.81 572.044C621.81 570.912 620.964 569.994 619.92 569.994C618.876 569.994 618.03 570.912 618.03 572.044C618.03 573.176 618.876 574.094 619.92 574.094Z" fill="#555555"/>
<path d="M643.356 485.128C644.4 485.128 645.246 484.21 645.246 483.078C645.246 481.946 644.4 481.028 643.356 481.028C642.312 481.028 641.466 481.946 641.466 483.078C641.466 484.21 642.312 485.128 643.356 485.128Z" fill="#555555"/>
<path d="M652.806 361.314C653.85 361.314 654.696 360.396 654.696 359.264C654.696 358.132 653.85 357.214 652.806 357.214C651.762 357.214 650.916 358.132 650.916 359.264C650.916 360.396 651.762 361.314 652.806 361.314Z" fill="#555555"/>
<path d="M744.66 371.563C745.704 371.563 746.55 370.646 746.55 369.514C746.55 368.381 745.704 367.464 744.66 367.464C743.616 367.464 742.77 368.381 742.77 369.514C742.77 370.646 743.616 371.563 744.66 371.563Z" fill="#555555"/>
<path d="M823.284 345.735C824.328 345.735 825.174 344.817 825.174 343.685C825.174 342.553 824.328 341.635 823.284 341.635C822.24 341.635 821.394 342.553 821.394 343.685C821.394 344.817 822.24 345.735 823.284 345.735Z" fill="#555555"/>
<path d="M694.386 435.52C695.43 435.52 696.276 434.603 696.276 433.47C696.276 432.338 695.43 431.421 694.386 431.421C693.342 431.421 692.496 432.338 692.496 433.47C692.496 434.603 693.342 435.52 694.386 435.52Z" fill="#555555"/>
<path d="M752.22 485.128C753.264 485.128 754.11 484.21 754.11 483.078C754.11 481.946 753.264 481.028 752.22 481.028C751.176 481.028 750.33 481.946 750.33 483.078C750.33 484.21 751.176 485.128 752.22 485.128Z" fill="#555555"/>
</g>
<mask id="mask8_38_2924" style="mask-type:luminance" maskUnits="userSpaceOnUse" x="302" y="326" width="303" height="329">
<path d="M604.8 326.466H302.4V654.45H604.8V326.466Z" fill="white"/>
</mask>
<g mask="url(#mask8_38_2924)">
<path d="M604.8 326.466H302.4V654.45H604.8V326.466Z" fill="#0D0D0D"/>
<path fill-rule="evenodd" clip-rule="evenodd" d="M276.425 300.502L350.474 359.042L290.912 420.362L341.236 483.151L228.359 528.6L317.539 571.861L419.232 546.85L499.038 596.898L578.805 628.47L652.913 687.113L652.699 687.383L578.631 628.772L498.897 597.213L498.882 597.207L498.868 597.199L419.172 547.22L317.93 572.121L414.205 639.686L350.119 687.331L317.375 572.165L227.509 528.571L340.676 483.005L290.452 420.34L349.96 359.076L276.211 300.772L276.425 300.502ZM317.819 572.464L350.315 686.756L413.615 639.694L317.819 572.464ZM694.364 433.601L593.06 420.522L593.104 420.18L694.408 433.258L694.364 433.601Z" fill="#444444"/>
<path fill-rule="evenodd" clip-rule="evenodd" d="M391.913 433.635L290.66 420.522L290.704 420.18L392.059 433.306L449.92 482.936L530.846 528.677L418.964 547.013L340.658 483.007L340.876 482.739L419.062 546.647L529.822 528.495L449.72 483.22L391.913 433.635ZM414.065 639.614L442.415 697.422L442.105 697.574L413.755 639.766L414.065 639.614Z" fill="#444444"/>
<path fill-rule="evenodd" clip-rule="evenodd" d="M413.974 311.444L442.349 369.302L520.745 343.281L593.424 420.462L506.217 436.912L449.959 483.187L419.372 547.079L414.099 639.403L498.828 596.925L530.251 528.354L620.181 571.979L578.842 628.744L520.788 671.955L498.853 597.299L413.721 639.978L419.032 546.991L449.681 482.969L506.067 436.589L592.74 420.24L520.645 343.678L442.171 369.725L413.846 311.969L350.442 359.107L392.201 433.502L341.111 483.168L317.679 572.119L276.555 628.589L350.513 687.113L350.299 687.383L276.081 628.653L317.361 571.968L340.801 482.988L391.771 433.439L349.992 359.011L413.974 311.444ZM499.144 597.066L520.98 671.383L578.594 628.498L619.659 572.109L530.417 528.818L499.144 597.066Z" fill="#444444"/>
<path fill-rule="evenodd" clip-rule="evenodd" d="M498.795 269.117L499.125 269.02L521.168 343.603L578.614 300.499L578.822 300.775L520.978 344.177L498.795 269.117ZM392.333 433.308L442.396 369.62L442.124 369.407L391.639 433.633L506.008 436.919L530.167 528.63L530.501 528.542L506.39 437.016L643.301 483.241L643.411 482.915L506.173 436.579L392.333 433.308ZM340.956 482.906H449.82V483.251H340.956V482.906Z" fill="#444444"/>
<path fill-rule="evenodd" clip-rule="evenodd" d="M350.115 358.874L317.354 244.107L317.686 244.012L350.486 358.916L442.342 369.349L506.026 436.377L520.501 343.602L413.861 311.872L413.959 311.541L520.73 343.31L653.174 359.134L593.312 420.362L643.636 483.151L530.57 528.677L578.873 628.546L578.563 628.696L530.098 528.495L643.076 483.005L592.852 420.34L652.438 359.394L520.84 343.671L506.258 437.123L442.178 369.678L350.431 359.257L350.24 359.311L350.218 359.233L350.198 359.23L218.464 343.856L218.504 343.513L350.115 358.874ZM203.797 436.587L341.011 482.915L340.901 483.241L203.687 436.914L203.797 436.587ZM413.959 639.525L520.933 671.504L520.835 671.834L413.861 639.856L413.959 639.525Z" fill="#444444"/>
<path d="M593.082 422.401C594.126 422.401 594.972 421.483 594.972 420.351C594.972 419.219 594.126 418.301 593.082 418.301C592.038 418.301 591.192 419.219 591.192 420.351C591.192 421.483 592.038 422.401 593.082 422.401Z" fill="#555555"/>
<path d="M506.142 438.8C507.186 438.8 508.032 437.882 508.032 436.75C508.032 435.618 507.186 434.7 506.142 434.7C505.098 434.7 504.252 435.618 504.252 436.75C504.252 437.882 505.098 438.8 506.142 438.8Z" fill="#555555"/>
<path d="M530.334 530.636C531.378 530.636 532.224 529.718 532.224 528.586C532.224 527.454 531.378 526.536 530.334 526.536C529.29 526.536 528.444 527.454 528.444 528.586C528.444 529.718 529.29 530.636 530.334 530.636Z" fill="#555555"/>
<path d="M578.718 630.671C579.762 630.671 580.608 629.753 580.608 628.621C580.608 627.489 579.762 626.571 578.718 626.571C577.674 626.571 576.828 627.489 576.828 628.621C576.828 629.753 577.674 630.671 578.718 630.671Z" fill="#555555"/>
<path d="M498.96 599.102C500.004 599.102 500.85 598.185 500.85 597.053C500.85 595.92 500.004 595.003 498.96 595.003C497.916 595.003 497.07 595.92 497.07 597.053C497.07 598.185 497.916 599.102 498.96 599.102Z" fill="#555555"/>
<path d="M419.202 549.085C420.246 549.085 421.092 548.167 421.092 547.035C421.092 545.903 420.246 544.985 419.202 544.985C418.158 544.985 417.312 545.903 417.312 547.035C417.312 548.167 418.158 549.085 419.202 549.085Z" fill="#555555"/>
<path d="M413.91 641.74C414.954 641.74 415.8 640.823 415.8 639.69C415.8 638.558 414.954 637.641 413.91 637.641C412.866 637.641 412.02 638.558 412.02 639.69C412.02 640.823 412.866 641.74 413.91 641.74Z" fill="#555555"/>
<path d="M317.52 574.094C318.564 574.094 319.41 573.176 319.41 572.044C319.41 570.912 318.564 569.994 317.52 569.994C316.476 569.994 315.63 570.912 315.63 572.044C315.63 573.176 316.476 574.094 317.52 574.094Z" fill="#555555"/>
<path d="M340.956 485.128C342 485.128 342.846 484.21 342.846 483.078C342.846 481.946 342 481.028 340.956 481.028C339.912 481.028 339.066 481.946 339.066 483.078C339.066 484.21 339.912 485.128 340.956 485.128Z" fill="#555555"/>
<path d="M350.406 361.314C351.45 361.314 352.296 360.396 352.296 359.264C352.296 358.132 351.45 357.214 350.406 357.214C349.362 357.214 348.516 358.132 348.516 359.264C348.516 360.396 349.362 361.314 350.406 361.314Z" fill="#555555"/>
<path d="M442.26 371.563C443.304 371.563 444.15 370.646 444.15 369.514C444.15 368.381 443.304 367.464 442.26 367.464C441.216 367.464 440.37 368.381 440.37 369.514C440.37 370.646 441.216 371.563 442.26 371.563Z" fill="#555555"/>
<path d="M520.884 345.735C521.928 345.735 522.774 344.817 522.774 343.685C522.774 342.553 521.928 341.635 520.884 341.635C519.84 341.635 518.994 342.553 518.994 343.685C518.994 344.817 519.84 345.735 520.884 345.735Z" fill="#555555"/>
<path d="M391.986 435.52C393.03 435.52 393.876 434.603 393.876 433.47C393.876 432.338 393.03 431.421 391.986 431.421C390.942 431.421 390.096 432.338 390.096 433.47C390.096 434.603 390.942 435.52 391.986 435.52Z" fill="#555555"/>
<path d="M449.82 485.128C450.864 485.128 451.71 484.21 451.71 483.078C451.71 481.946 450.864 481.028 449.82 481.028C448.776 481.028 447.93 481.946 447.93 483.078C447.93 484.21 448.776 485.128 449.82 485.128Z" fill="#555555"/>
</g>
<mask id="mask9_38_2924" style="mask-type:luminance" maskUnits="userSpaceOnUse" x="0" y="326" width="303" height="329">
<path d="M302.4 326.466H0V654.45H302.4V326.466Z" fill="white"/>
</mask>
<g mask="url(#mask9_38_2924)">
<path d="M302.4 326.466H0V654.45H302.4V326.466Z" fill="#0D0D0D"/>
<path fill-rule="evenodd" clip-rule="evenodd" d="M-25.9751 300.502L48.0738 359.042L-11.4882 420.362L38.8358 483.151L-74.0406 528.6L15.1392 571.861L116.832 546.85L196.638 596.898L276.405 628.47L350.513 687.113L350.299 687.383L276.231 628.772L196.496 597.213L196.482 597.207L196.468 597.199L116.772 547.22L15.5298 572.121L111.805 639.686L47.7194 687.331L14.9752 572.165L-74.8915 528.571L38.2762 483.005L-11.9479 420.34L47.5601 359.076L-26.189 300.772L-25.9751 300.502ZM15.4189 572.464L47.9146 686.756L111.215 639.694L15.4189 572.464ZM391.964 433.601L290.66 420.522L290.704 420.18L392.008 433.258L391.964 433.601Z" fill="#444444"/>
<path fill-rule="evenodd" clip-rule="evenodd" d="M89.5128 433.635L-11.7402 420.522L-11.6959 420.18L89.6592 433.306L147.52 482.936L228.445 528.677L116.564 547.013L38.2578 483.007L38.4762 482.739L116.662 546.647L227.422 528.495L147.32 483.22L89.5128 433.635ZM111.665 639.614L140.015 697.422L139.705 697.574L111.355 639.766L111.665 639.614Z" fill="#444444"/>
<path fill-rule="evenodd" clip-rule="evenodd" d="M111.574 311.444L139.949 369.302L218.345 343.281L291.024 420.462L203.817 436.912L147.559 483.187L116.972 547.079L111.699 639.403L196.428 596.925L227.851 528.354L317.781 571.979L276.442 628.744L218.388 671.955L196.453 597.299L111.321 639.978L116.632 546.991L147.281 482.969L203.667 436.589L290.34 420.24L218.245 343.678L139.771 369.725L111.446 311.969L48.0417 359.107L89.8013 433.502L38.7106 483.168L15.2785 572.119L-25.845 628.589L48.113 687.113L47.8989 687.383L-26.319 628.653L14.9614 571.968L38.4014 482.988L89.3706 433.439L47.5923 359.011L111.574 311.444ZM196.744 597.066L218.58 671.383L276.194 628.498L317.259 572.109L228.017 528.818L196.744 597.066Z" fill="#444444"/>
<path fill-rule="evenodd" clip-rule="evenodd" d="M196.395 269.117L196.725 269.02L218.768 343.603L276.214 300.499L276.421 300.775L218.578 344.177L196.395 269.117ZM89.9332 433.308L139.996 369.62L139.724 369.407L89.2387 433.633L203.608 436.919L227.767 528.63L228.101 528.542L203.99 437.016L340.901 483.241L341.011 482.915L203.773 436.579L89.9332 433.308ZM38.556 482.906H147.42V483.251H38.556V482.906Z" fill="#444444"/>
<path fill-rule="evenodd" clip-rule="evenodd" d="M47.7151 358.874L14.9541 244.107L15.2859 244.012L48.086 358.916L139.942 369.349L203.626 436.377L218.101 343.602L111.461 311.872L111.559 311.541L218.33 343.31L350.774 359.134L290.912 420.362L341.236 483.151L228.17 528.677L276.473 628.546L276.163 628.696L227.698 528.495L340.676 483.005L290.452 420.34L350.038 359.394L218.44 343.671L203.858 437.123L139.778 369.678L48.0308 359.257L47.8401 359.311L47.8176 359.233L47.7975 359.23L-83.936 343.856L-83.896 343.513L47.7151 358.874ZM-98.6028 436.587L38.6111 482.915L38.5008 483.241L-98.7132 436.914L-98.6028 436.587ZM111.559 639.525L218.533 671.504L218.435 671.834L111.461 639.856L111.559 639.525Z" fill="#444444"/>
<path d="M290.682 422.401C291.726 422.401 292.572 421.483 292.572 420.351C292.572 419.219 291.726 418.301 290.682 418.301C289.638 418.301 288.792 419.219 288.792 420.351C288.792 421.483 289.638 422.401 290.682 422.401Z" fill="#555555"/>
<path d="M203.742 438.8C204.786 438.8 205.632 437.882 205.632 436.75C205.632 435.618 204.786 434.7 203.742 434.7C202.698 434.7 201.852 435.618 201.852 436.75C201.852 437.882 202.698 438.8 203.742 438.8Z" fill="#555555"/>
<path d="M227.934 530.636C228.978 530.636 229.824 529.718 229.824 528.586C229.824 527.454 228.978 526.536 227.934 526.536C226.89 526.536 226.044 527.454 226.044 528.586C226.044 529.718 226.89 530.636 227.934 530.636Z" fill="#555555"/>
<path d="M276.318 630.671C277.362 630.671 278.208 629.753 278.208 628.621C278.208 627.489 277.362 626.571 276.318 626.571C275.274 626.571 274.428 627.489 274.428 628.621C274.428 629.753 275.274 630.671 276.318 630.671Z" fill="#555555"/>
<path d="M196.56 599.102C197.604 599.102 198.45 598.185 198.45 597.053C198.45 595.92 197.604 595.003 196.56 595.003C195.516 595.003 194.67 595.92 194.67 597.053C194.67 598.185 195.516 599.102 196.56 599.102Z" fill="#555555"/>
<path d="M116.802 549.085C117.846 549.085 118.692 548.167 118.692 547.035C118.692 545.903 117.846 544.985 116.802 544.985C115.758 544.985 114.912 545.903 114.912 547.035C114.912 548.167 115.758 549.085 116.802 549.085Z" fill="#555555"/>
<path d="M111.51 641.74C112.554 641.74 113.4 640.823 113.4 639.69C113.4 638.558 112.554 637.641 111.51 637.641C110.466 637.641 109.62 638.558 109.62 639.69C109.62 640.823 110.466 641.74 111.51 641.74Z" fill="#555555"/>
<path d="M15.12 574.094C16.1638 574.094 17.01 573.176 17.01 572.044C17.01 570.912 16.1638 569.994 15.12 569.994C14.0762 569.994 13.23 570.912 13.23 572.044C13.23 573.176 14.0762 574.094 15.12 574.094Z" fill="#555555"/>
<path d="M38.556 485.128C39.5998 485.128 40.446 484.21 40.446 483.078C40.446 481.946 39.5998 481.028 38.556 481.028C37.5121 481.028 36.666 481.946 36.666 483.078C36.666 484.21 37.5121 485.128 38.556 485.128Z" fill="#555555"/>
<path d="M48.006 361.314C49.0498 361.314 49.896 360.396 49.896 359.264C49.896 358.132 49.0498 357.214 48.006 357.214C46.9621 357.214 46.116 358.132 46.116 359.264C46.116 360.396 46.9621 361.314 48.006 361.314Z" fill="#555555"/>
<path d="M139.86 371.563C140.904 371.563 141.75 370.646 141.75 369.514C141.75 368.381 140.904 367.464 139.86 367.464C138.816 367.464 137.97 368.381 137.97 369.514C137.97 370.646 138.816 371.563 139.86 371.563Z" fill="#555555"/>
<path d="M218.484 345.735C219.528 345.735 220.374 344.817 220.374 343.685C220.374 342.553 219.528 341.635 218.484 341.635C217.44 341.635 216.594 342.553 216.594 343.685C216.594 344.817 217.44 345.735 218.484 345.735Z" fill="#555555"/>
<path d="M89.586 435.52C90.6298 435.52 91.476 434.603 91.476 433.47C91.476 432.338 90.6298 431.421 89.586 431.421C88.5422 431.421 87.696 432.338 87.696 433.47C87.696 434.603 88.5422 435.52 89.586 435.52Z" fill="#555555"/>
<path d="M147.42 485.128C148.464 485.128 149.31 484.21 149.31 483.078C149.31 481.946 148.464 481.028 147.42 481.028C146.376 481.028 145.53 481.946 145.53 483.078C145.53 484.21 146.376 485.128 147.42 485.128Z" fill="#555555"/>
</g>
<mask id="mask10_38_2924" style="mask-type:luminance" maskUnits="userSpaceOnUse" x="1209" y="654" width="303" height="328">
<path d="M1512 654.016H1209.6V982H1512V654.016Z" fill="white"/>
</mask>
<g mask="url(#mask10_38_2924)">
<path d="M1512 654.016H1209.6V982H1512V654.016Z" fill="#0D0D0D"/>
<path fill-rule="evenodd" clip-rule="evenodd" d="M1183.62 628.052L1257.67 686.592L1198.11 747.912L1248.44 810.702L1135.56 856.151L1224.74 899.412L1326.43 874.4L1406.24 924.448L1486.01 956.02L1560.11 1014.66L1559.9 1014.93L1485.83 956.322L1406.1 924.763L1406.08 924.757L1406.07 924.749L1326.37 874.77L1225.13 899.671L1321.4 967.237L1257.32 1014.88L1224.58 899.715L1134.71 856.121L1247.88 810.555L1197.65 747.89L1257.16 686.626L1183.41 628.322L1183.62 628.052ZM1225.02 900.014L1257.51 1014.31L1320.82 967.245L1225.02 900.014ZM1601.56 761.151L1500.26 748.072L1500.3 747.73L1601.61 760.809L1601.56 761.151Z" fill="#444444"/>
<path fill-rule="evenodd" clip-rule="evenodd" d="M1299.11 761.185L1197.86 748.072L1197.9 747.73L1299.26 760.856L1357.12 810.486L1438.05 856.227L1326.16 874.563L1247.86 810.557L1248.08 810.29L1326.26 874.197L1437.02 856.045L1356.92 810.77L1299.11 761.185ZM1321.26 967.165L1349.61 1024.97L1349.31 1025.12L1320.96 967.317L1321.26 967.165Z" fill="#444444"/>
<path fill-rule="evenodd" clip-rule="evenodd" d="M1321.17 638.994L1349.55 696.853L1427.95 670.832L1500.62 748.012L1413.42 764.462L1357.16 810.737L1326.57 874.629L1321.3 966.953L1406.03 924.476L1437.45 855.904L1527.38 899.529L1486.04 956.294L1427.99 999.505L1406.05 924.849L1320.92 967.528L1326.23 874.541L1356.88 810.519L1413.27 764.139L1499.94 747.79L1427.84 671.228L1349.37 697.275L1321.05 639.519L1257.64 686.657L1299.4 761.052L1248.31 810.719L1224.88 899.669L1183.75 956.139L1257.71 1014.66L1257.5 1014.93L1183.28 956.204L1224.56 899.519L1248 810.538L1298.97 760.989L1257.19 686.561L1321.17 638.994ZM1406.34 924.616L1428.18 998.933L1485.79 956.048L1526.86 899.659L1437.62 856.368L1406.34 924.616Z" fill="#444444"/>
<path fill-rule="evenodd" clip-rule="evenodd" d="M1405.99 596.668L1406.33 596.57L1428.37 671.153L1485.81 628.049L1486.02 628.325L1428.18 671.727L1405.99 596.668ZM1299.53 760.858L1349.6 697.17L1349.32 696.957L1298.84 761.183L1413.21 764.469L1437.37 856.18L1437.7 856.092L1413.59 764.566L1550.5 810.792L1550.61 810.465L1413.37 764.129L1299.53 760.858ZM1248.16 810.456H1357.02V810.801H1248.16V810.456Z" fill="#444444"/>
<path fill-rule="evenodd" clip-rule="evenodd" d="M1257.32 686.424L1224.55 571.657L1224.89 571.563L1257.69 686.466L1349.54 696.899L1413.23 763.928L1427.7 671.152L1321.06 639.422L1321.16 639.091L1427.93 670.861L1560.37 686.685L1500.51 747.913L1550.84 810.702L1437.77 856.227L1486.07 956.096L1485.76 956.246L1437.3 856.045L1550.28 810.555L1500.05 747.89L1559.64 686.944L1428.04 671.221L1413.46 764.673L1349.38 697.228L1257.63 686.807L1257.44 686.862L1257.42 686.783L1257.4 686.781L1125.66 671.406L1125.7 671.064L1257.32 686.424ZM1111 764.137L1248.21 810.465L1248.1 810.792L1110.89 764.464L1111 764.137ZM1321.16 967.075L1428.13 999.054L1428.03 999.384L1321.06 967.406L1321.16 967.075Z" fill="#444444"/>
<path d="M1500.28 749.951C1501.33 749.951 1502.17 749.033 1502.17 747.901C1502.17 746.769 1501.33 745.851 1500.28 745.851C1499.24 745.851 1498.39 746.769 1498.39 747.901C1498.39 749.033 1499.24 749.951 1500.28 749.951Z" fill="#555555"/>
<path d="M1413.34 766.35C1414.39 766.35 1415.23 765.433 1415.23 764.301C1415.23 763.168 1414.39 762.251 1413.34 762.251C1412.3 762.251 1411.45 763.168 1411.45 764.301C1411.45 765.433 1412.3 766.35 1413.34 766.35Z" fill="#555555"/>
<path d="M1437.53 858.186C1438.58 858.186 1439.42 857.268 1439.42 856.136C1439.42 855.004 1438.58 854.086 1437.53 854.086C1436.49 854.086 1435.64 855.004 1435.64 856.136C1435.64 857.268 1436.49 858.186 1437.53 858.186Z" fill="#555555"/>
<path d="M1485.92 958.221C1486.96 958.221 1487.81 957.303 1487.81 956.171C1487.81 955.039 1486.96 954.121 1485.92 954.121C1484.87 954.121 1484.03 955.039 1484.03 956.171C1484.03 957.303 1484.87 958.221 1485.92 958.221Z" fill="#555555"/>
<path d="M1406.16 926.653C1407.2 926.653 1408.05 925.735 1408.05 924.603C1408.05 923.471 1407.2 922.553 1406.16 922.553C1405.12 922.553 1404.27 923.471 1404.27 924.603C1404.27 925.735 1405.12 926.653 1406.16 926.653Z" fill="#555555"/>
<path d="M1326.4 876.635C1327.45 876.635 1328.29 875.717 1328.29 874.585C1328.29 873.453 1327.45 872.535 1326.4 872.535C1325.36 872.535 1324.51 873.453 1324.51 874.585C1324.51 875.717 1325.36 876.635 1326.4 876.635Z" fill="#555555"/>
<path d="M1321.11 969.291C1322.15 969.291 1323 968.373 1323 967.241C1323 966.109 1322.15 965.191 1321.11 965.191C1320.07 965.191 1319.22 966.109 1319.22 967.241C1319.22 968.373 1320.07 969.291 1321.11 969.291Z" fill="#555555"/>
<path d="M1224.72 901.644C1225.76 901.644 1226.61 900.726 1226.61 899.594C1226.61 898.462 1225.76 897.544 1224.72 897.544C1223.68 897.544 1222.83 898.462 1222.83 899.594C1222.83 900.726 1223.68 901.644 1224.72 901.644Z" fill="#555555"/>
<path d="M1248.16 812.678C1249.2 812.678 1250.05 811.76 1250.05 810.628C1250.05 809.496 1249.2 808.578 1248.16 808.578C1247.11 808.578 1246.27 809.496 1246.27 810.628C1246.27 811.76 1247.11 812.678 1248.16 812.678Z" fill="#555555"/>
<path d="M1257.61 688.864C1258.65 688.864 1259.5 687.946 1259.5 686.814C1259.5 685.682 1258.65 684.764 1257.61 684.764C1256.56 684.764 1255.72 685.682 1255.72 686.814C1255.72 687.946 1256.56 688.864 1257.61 688.864Z" fill="#555555"/>
<path d="M1349.46 699.114C1350.5 699.114 1351.35 698.196 1351.35 697.064C1351.35 695.932 1350.5 695.014 1349.46 695.014C1348.42 695.014 1347.57 695.932 1347.57 697.064C1347.57 698.196 1348.42 699.114 1349.46 699.114Z" fill="#555555"/>
<path d="M1428.08 673.285C1429.13 673.285 1429.97 672.367 1429.97 671.235C1429.97 670.103 1429.13 669.185 1428.08 669.185C1427.04 669.185 1426.19 670.103 1426.19 671.235C1426.19 672.367 1427.04 673.285 1428.08 673.285Z" fill="#555555"/>
<path d="M1299.19 763.071C1300.23 763.071 1301.08 762.153 1301.08 761.021C1301.08 759.889 1300.23 758.971 1299.19 758.971C1298.14 758.971 1297.3 759.889 1297.3 761.021C1297.3 762.153 1298.14 763.071 1299.19 763.071Z" fill="#555555"/>
<path d="M1357.02 812.678C1358.06 812.678 1358.91 811.76 1358.91 810.628C1358.91 809.496 1358.06 808.578 1357.02 808.578C1355.98 808.578 1355.13 809.496 1355.13 810.628C1355.13 811.76 1355.98 812.678 1357.02 812.678Z" fill="#555555"/>
</g>
<mask id="mask11_38_2924" style="mask-type:luminance" maskUnits="userSpaceOnUse" x="907" y="654" width="303" height="328">
<path d="M1209.6 654.016H907.2V982H1209.6V654.016Z" fill="white"/>
</mask>
<g mask="url(#mask11_38_2924)">
<path d="M1209.6 654.016H907.2V982H1209.6V654.016Z" fill="#0D0D0D"/>
<path fill-rule="evenodd" clip-rule="evenodd" d="M881.225 628.052L955.274 686.592L895.712 747.912L946.036 810.702L833.159 856.151L922.339 899.412L1024.03 874.4L1103.84 924.448L1183.61 956.02L1257.71 1014.66L1257.5 1014.93L1183.43 956.322L1103.7 924.763L1103.68 924.757L1103.67 924.749L1023.97 874.77L922.73 899.671L1019 967.237L954.919 1014.88L922.175 899.715L832.309 856.121L945.476 810.555L895.252 747.89L954.76 686.626L881.011 628.322L881.225 628.052ZM922.619 900.014L955.115 1014.31L1018.42 967.245L922.619 900.014ZM1299.16 761.151L1197.86 748.072L1197.9 747.73L1299.21 760.809L1299.16 761.151Z" fill="#444444"/>
<path fill-rule="evenodd" clip-rule="evenodd" d="M996.713 761.185L895.46 748.072L895.504 747.73L996.859 760.856L1054.72 810.486L1135.65 856.227L1023.76 874.563L945.458 810.557L945.676 810.29L1023.86 874.197L1134.62 856.045L1054.52 810.77L996.713 761.185ZM1018.86 967.165L1047.21 1024.97L1046.91 1025.12L1018.56 967.317L1018.86 967.165Z" fill="#444444"/>
<path fill-rule="evenodd" clip-rule="evenodd" d="M1018.77 638.994L1047.15 696.853L1125.55 670.832L1198.22 748.012L1111.02 764.462L1054.76 810.737L1024.17 874.629L1018.9 966.953L1103.63 924.476L1135.05 855.904L1224.98 899.529L1183.64 956.294L1125.59 999.505L1103.65 924.849L1018.52 967.528L1023.83 874.541L1054.48 810.519L1110.87 764.139L1197.54 747.79L1125.44 671.228L1046.97 697.275L1018.65 639.519L955.242 686.657L997.001 761.052L945.911 810.719L922.479 899.669L881.355 956.139L955.313 1014.66L955.099 1014.93L880.881 956.204L922.161 899.519L945.601 810.538L996.571 760.989L954.792 686.561L1018.77 638.994ZM1103.94 924.616L1125.78 998.933L1183.39 956.048L1224.46 899.659L1135.22 856.368L1103.94 924.616Z" fill="#444444"/>
<path fill-rule="evenodd" clip-rule="evenodd" d="M1103.59 596.668L1103.93 596.57L1125.97 671.153L1183.41 628.049L1183.62 628.325L1125.78 671.727L1103.59 596.668ZM997.133 760.858L1047.2 697.17L1046.92 696.957L996.439 761.183L1110.81 764.469L1134.97 856.18L1135.3 856.092L1111.19 764.566L1248.1 810.792L1248.21 810.465L1110.97 764.129L997.133 760.858ZM945.756 810.456H1054.62V810.801H945.756V810.456Z" fill="#444444"/>
<path fill-rule="evenodd" clip-rule="evenodd" d="M954.915 686.424L922.154 571.657L922.486 571.563L955.286 686.466L1047.14 696.899L1110.83 763.928L1125.3 671.152L1018.66 639.422L1018.76 639.091L1125.53 670.861L1257.97 686.685L1198.11 747.913L1248.44 810.702L1135.37 856.227L1183.67 956.096L1183.36 956.246L1134.9 856.045L1247.88 810.555L1197.65 747.89L1257.24 686.944L1125.64 671.221L1111.06 764.673L1046.98 697.228L955.231 686.807L955.04 686.862L955.018 686.783L954.998 686.781L823.264 671.406L823.304 671.064L954.915 686.424ZM808.597 764.137L945.811 810.465L945.701 810.792L808.487 764.464L808.597 764.137ZM1018.76 967.075L1125.73 999.054L1125.63 999.384L1018.66 967.406L1018.76 967.075Z" fill="#444444"/>
<path d="M1197.88 749.951C1198.93 749.951 1199.77 749.033 1199.77 747.901C1199.77 746.769 1198.93 745.851 1197.88 745.851C1196.84 745.851 1195.99 746.769 1195.99 747.901C1195.99 749.033 1196.84 749.951 1197.88 749.951Z" fill="#555555"/>
<path d="M1110.94 766.35C1111.99 766.35 1112.83 765.433 1112.83 764.301C1112.83 763.168 1111.99 762.251 1110.94 762.251C1109.9 762.251 1109.05 763.168 1109.05 764.301C1109.05 765.433 1109.9 766.35 1110.94 766.35Z" fill="#555555"/>
<path d="M1135.13 858.186C1136.18 858.186 1137.02 857.268 1137.02 856.136C1137.02 855.004 1136.18 854.086 1135.13 854.086C1134.09 854.086 1133.24 855.004 1133.24 856.136C1133.24 857.268 1134.09 858.186 1135.13 858.186Z" fill="#555555"/>
<path d="M1183.52 958.221C1184.56 958.221 1185.41 957.303 1185.41 956.171C1185.41 955.039 1184.56 954.121 1183.52 954.121C1182.47 954.121 1181.63 955.039 1181.63 956.171C1181.63 957.303 1182.47 958.221 1183.52 958.221Z" fill="#555555"/>
<path d="M1103.76 926.653C1104.8 926.653 1105.65 925.735 1105.65 924.603C1105.65 923.471 1104.8 922.553 1103.76 922.553C1102.72 922.553 1101.87 923.471 1101.87 924.603C1101.87 925.735 1102.72 926.653 1103.76 926.653Z" fill="#555555"/>
<path d="M1024 876.635C1025.05 876.635 1025.89 875.717 1025.89 874.585C1025.89 873.453 1025.05 872.535 1024 872.535C1022.96 872.535 1022.11 873.453 1022.11 874.585C1022.11 875.717 1022.96 876.635 1024 876.635Z" fill="#555555"/>
<path d="M1018.71 969.291C1019.75 969.291 1020.6 968.373 1020.6 967.241C1020.6 966.109 1019.75 965.191 1018.71 965.191C1017.67 965.191 1016.82 966.109 1016.82 967.241C1016.82 968.373 1017.67 969.291 1018.71 969.291Z" fill="#555555"/>
<path d="M922.32 901.644C923.364 901.644 924.21 900.726 924.21 899.594C924.21 898.462 923.364 897.544 922.32 897.544C921.276 897.544 920.43 898.462 920.43 899.594C920.43 900.726 921.276 901.644 922.32 901.644Z" fill="#555555"/>
<path d="M945.756 812.678C946.8 812.678 947.646 811.76 947.646 810.628C947.646 809.496 946.8 808.578 945.756 808.578C944.712 808.578 943.866 809.496 943.866 810.628C943.866 811.76 944.712 812.678 945.756 812.678Z" fill="#555555"/>
<path d="M955.206 688.864C956.25 688.864 957.096 687.946 957.096 686.814C957.096 685.682 956.25 684.764 955.206 684.764C954.162 684.764 953.316 685.682 953.316 686.814C953.316 687.946 954.162 688.864 955.206 688.864Z" fill="#555555"/>
<path d="M1047.06 699.114C1048.1 699.114 1048.95 698.196 1048.95 697.064C1048.95 695.932 1048.1 695.014 1047.06 695.014C1046.02 695.014 1045.17 695.932 1045.17 697.064C1045.17 698.196 1046.02 699.114 1047.06 699.114Z" fill="#555555"/>
<path d="M1125.68 673.285C1126.73 673.285 1127.57 672.367 1127.57 671.235C1127.57 670.103 1126.73 669.185 1125.68 669.185C1124.64 669.185 1123.79 670.103 1123.79 671.235C1123.79 672.367 1124.64 673.285 1125.68 673.285Z" fill="#555555"/>
<path d="M996.786 763.071C997.83 763.071 998.676 762.153 998.676 761.021C998.676 759.889 997.83 758.971 996.786 758.971C995.742 758.971 994.896 759.889 994.896 761.021C994.896 762.153 995.742 763.071 996.786 763.071Z" fill="#555555"/>
<path d="M1054.62 812.678C1055.66 812.678 1056.51 811.76 1056.51 810.628C1056.51 809.496 1055.66 808.578 1054.62 808.578C1053.58 808.578 1052.73 809.496 1052.73 810.628C1052.73 811.76 1053.58 812.678 1054.62 812.678Z" fill="#555555"/>
</g>
<mask id="mask12_38_2924" style="mask-type:luminance" maskUnits="userSpaceOnUse" x="604" y="654" width="304" height="328">
<path d="M907.2 654.016H604.8V982H907.2V654.016Z" fill="white"/>
</mask>
<g mask="url(#mask12_38_2924)">
<path d="M907.2 654.016H604.8V982H907.2V654.016Z" fill="#0D0D0D"/>
<path fill-rule="evenodd" clip-rule="evenodd" d="M578.825 628.052L652.874 686.592L593.312 747.912L643.636 810.702L530.759 856.151L619.939 899.412L721.632 874.4L801.438 924.448L881.205 956.02L955.313 1014.66L955.099 1014.93L881.031 956.322L801.297 924.763L801.282 924.757L801.268 924.749L721.572 874.77L620.33 899.671L716.605 967.237L652.519 1014.88L619.775 899.715L529.909 856.121L643.076 810.555L592.852 747.89L652.36 686.626L578.611 628.322L578.825 628.052ZM620.219 900.014L652.715 1014.31L716.015 967.245L620.219 900.014ZM996.764 761.151L895.46 748.072L895.504 747.73L996.808 760.809L996.764 761.151Z" fill="#444444"/>
<path fill-rule="evenodd" clip-rule="evenodd" d="M694.313 761.185L593.06 748.072L593.104 747.73L694.459 760.856L752.32 810.486L833.245 856.227L721.364 874.563L643.058 810.557L643.276 810.29L721.462 874.197L832.222 856.045L752.12 810.77L694.313 761.185ZM716.465 967.165L744.815 1024.97L744.505 1025.12L716.155 967.317L716.465 967.165Z" fill="#444444"/>
<path fill-rule="evenodd" clip-rule="evenodd" d="M716.374 638.994L744.749 696.853L823.145 670.832L895.824 748.012L808.617 764.462L752.359 810.737L721.772 874.629L716.499 966.953L801.228 924.476L832.651 855.904L922.581 899.529L881.242 956.294L823.188 999.505L801.253 924.849L716.121 967.528L721.432 874.541L752.081 810.519L808.467 764.139L895.14 747.79L823.045 671.228L744.571 697.275L716.246 639.519L652.842 686.657L694.601 761.052L643.511 810.719L620.079 899.669L578.955 956.139L652.913 1014.66L652.699 1014.93L578.481 956.204L619.761 899.519L643.201 810.538L694.171 760.989L652.392 686.561L716.374 638.994ZM801.544 924.616L823.38 998.933L880.994 956.048L922.059 899.659L832.817 856.368L801.544 924.616Z" fill="#444444"/>
<path fill-rule="evenodd" clip-rule="evenodd" d="M801.195 596.668L801.525 596.57L823.568 671.153L881.014 628.049L881.221 628.325L823.378 671.727L801.195 596.668ZM694.733 760.858L744.796 697.17L744.524 696.957L694.039 761.183L808.408 764.469L832.567 856.18L832.901 856.092L808.79 764.566L945.701 810.792L945.811 810.465L808.573 764.129L694.733 760.858ZM643.356 810.456H752.22V810.801H643.356V810.456Z" fill="#444444"/>
<path fill-rule="evenodd" clip-rule="evenodd" d="M652.515 686.424L619.754 571.657L620.086 571.563L652.886 686.466L744.742 696.899L808.426 763.928L822.901 671.152L716.261 639.422L716.359 639.091L823.13 670.861L955.574 686.685L895.712 747.913L946.036 810.702L832.97 856.227L881.273 956.096L880.963 956.246L832.498 856.045L945.476 810.555L895.252 747.89L954.838 686.944L823.24 671.221L808.658 764.673L744.578 697.228L652.831 686.807L652.64 686.862L652.618 686.783L652.598 686.781L520.864 671.406L520.904 671.064L652.515 686.424ZM506.197 764.137L643.411 810.465L643.301 810.792L506.087 764.464L506.197 764.137ZM716.359 967.075L823.333 999.054L823.235 999.384L716.261 967.406L716.359 967.075Z" fill="#444444"/>
<path d="M895.482 749.951C896.526 749.951 897.372 749.033 897.372 747.901C897.372 746.769 896.526 745.851 895.482 745.851C894.438 745.851 893.592 746.769 893.592 747.901C893.592 749.033 894.438 749.951 895.482 749.951Z" fill="#555555"/>
<path d="M808.542 766.35C809.586 766.35 810.432 765.433 810.432 764.301C810.432 763.168 809.586 762.251 808.542 762.251C807.498 762.251 806.652 763.168 806.652 764.301C806.652 765.433 807.498 766.35 808.542 766.35Z" fill="#555555"/>
<path d="M832.734 858.186C833.778 858.186 834.624 857.268 834.624 856.136C834.624 855.004 833.778 854.086 832.734 854.086C831.69 854.086 830.844 855.004 830.844 856.136C830.844 857.268 831.69 858.186 832.734 858.186Z" fill="#555555"/>
<path d="M881.118 958.221C882.162 958.221 883.008 957.303 883.008 956.171C883.008 955.039 882.162 954.121 881.118 954.121C880.074 954.121 879.228 955.039 879.228 956.171C879.228 957.303 880.074 958.221 881.118 958.221Z" fill="#555555"/>
<path d="M801.36 926.653C802.404 926.653 803.25 925.735 803.25 924.603C803.25 923.471 802.404 922.553 801.36 922.553C800.316 922.553 799.47 923.471 799.47 924.603C799.47 925.735 800.316 926.653 801.36 926.653Z" fill="#555555"/>
<path d="M721.602 876.635C722.646 876.635 723.492 875.717 723.492 874.585C723.492 873.453 722.646 872.535 721.602 872.535C720.558 872.535 719.712 873.453 719.712 874.585C719.712 875.717 720.558 876.635 721.602 876.635Z" fill="#555555"/>
<path d="M716.31 969.291C717.354 969.291 718.2 968.373 718.2 967.241C718.2 966.109 717.354 965.191 716.31 965.191C715.266 965.191 714.42 966.109 714.42 967.241C714.42 968.373 715.266 969.291 716.31 969.291Z" fill="#555555"/>
<path d="M619.92 901.644C620.964 901.644 621.81 900.726 621.81 899.594C621.81 898.462 620.964 897.544 619.92 897.544C618.876 897.544 618.03 898.462 618.03 899.594C618.03 900.726 618.876 901.644 619.92 901.644Z" fill="#555555"/>
<path d="M643.356 812.678C644.4 812.678 645.246 811.76 645.246 810.628C645.246 809.496 644.4 808.578 643.356 808.578C642.312 808.578 641.466 809.496 641.466 810.628C641.466 811.76 642.312 812.678 643.356 812.678Z" fill="#555555"/>
<path d="M652.806 688.864C653.85 688.864 654.696 687.946 654.696 686.814C654.696 685.682 653.85 684.764 652.806 684.764C651.762 684.764 650.916 685.682 650.916 686.814C650.916 687.946 651.762 688.864 652.806 688.864Z" fill="#555555"/>
<path d="M744.66 699.114C745.704 699.114 746.55 698.196 746.55 697.064C746.55 695.932 745.704 695.014 744.66 695.014C743.616 695.014 742.77 695.932 742.77 697.064C742.77 698.196 743.616 699.114 744.66 699.114Z" fill="#555555"/>
<path d="M823.284 673.285C824.328 673.285 825.174 672.367 825.174 671.235C825.174 670.103 824.328 669.185 823.284 669.185C822.24 669.185 821.394 670.103 821.394 671.235C821.394 672.367 822.24 673.285 823.284 673.285Z" fill="#555555"/>
<path d="M694.386 763.071C695.43 763.071 696.276 762.153 696.276 761.021C696.276 759.889 695.43 758.971 694.386 758.971C693.342 758.971 692.496 759.889 692.496 761.021C692.496 762.153 693.342 763.071 694.386 763.071Z" fill="#555555"/>
<path d="M752.22 812.678C753.264 812.678 754.11 811.76 754.11 810.628C754.11 809.496 753.264 808.578 752.22 808.578C751.176 808.578 750.33 809.496 750.33 810.628C750.33 811.76 751.176 812.678 752.22 812.678Z" fill="#555555"/>
</g>
<mask id="mask13_38_2924" style="mask-type:luminance" maskUnits="userSpaceOnUse" x="302" y="654" width="303" height="328">
<path d="M604.8 654.016H302.4V982H604.8V654.016Z" fill="white"/>
</mask>
<g mask="url(#mask13_38_2924)">
<path d="M604.8 654.016H302.4V982H604.8V654.016Z" fill="#0D0D0D"/>
<path fill-rule="evenodd" clip-rule="evenodd" d="M276.425 628.052L350.474 686.592L290.912 747.912L341.236 810.702L228.359 856.151L317.539 899.412L419.232 874.4L499.038 924.448L578.805 956.02L652.913 1014.66L652.699 1014.93L578.631 956.322L498.897 924.763L498.882 924.757L498.868 924.749L419.172 874.77L317.93 899.671L414.205 967.237L350.119 1014.88L317.375 899.715L227.509 856.121L340.676 810.555L290.452 747.89L349.96 686.626L276.211 628.322L276.425 628.052ZM317.819 900.014L350.315 1014.31L413.615 967.245L317.819 900.014ZM694.364 761.151L593.06 748.072L593.104 747.73L694.408 760.809L694.364 761.151Z" fill="#444444"/>
<path fill-rule="evenodd" clip-rule="evenodd" d="M391.913 761.185L290.66 748.072L290.704 747.73L392.059 760.856L449.92 810.486L530.846 856.227L418.964 874.563L340.658 810.557L340.876 810.29L419.062 874.197L529.822 856.045L449.72 810.77L391.913 761.185ZM414.065 967.165L442.415 1024.97L442.105 1025.12L413.755 967.317L414.065 967.165Z" fill="#444444"/>
<path fill-rule="evenodd" clip-rule="evenodd" d="M413.974 638.994L442.349 696.853L520.745 670.832L593.424 748.012L506.217 764.462L449.959 810.737L419.372 874.629L414.099 966.953L498.828 924.476L530.251 855.904L620.181 899.529L578.842 956.294L520.788 999.505L498.853 924.849L413.721 967.528L419.032 874.541L449.681 810.519L506.067 764.139L592.74 747.79L520.645 671.228L442.171 697.275L413.846 639.519L350.442 686.657L392.201 761.052L341.111 810.719L317.679 899.669L276.555 956.139L350.513 1014.66L350.299 1014.93L276.081 956.204L317.361 899.519L340.801 810.538L391.771 760.989L349.992 686.561L413.974 638.994ZM499.144 924.616L520.98 998.933L578.594 956.048L619.659 899.659L530.417 856.368L499.144 924.616Z" fill="#444444"/>
<path fill-rule="evenodd" clip-rule="evenodd" d="M498.795 596.668L499.125 596.57L521.168 671.153L578.614 628.049L578.822 628.325L520.978 671.727L498.795 596.668ZM392.333 760.858L442.396 697.17L442.124 696.957L391.639 761.183L506.008 764.469L530.167 856.18L530.501 856.092L506.39 764.566L643.301 810.792L643.411 810.465L506.173 764.129L392.333 760.858ZM340.956 810.456H449.82V810.801H340.956V810.456Z" fill="#444444"/>
<path fill-rule="evenodd" clip-rule="evenodd" d="M350.115 686.424L317.354 571.657L317.686 571.563L350.486 686.466L442.342 696.899L506.026 763.928L520.501 671.152L413.861 639.422L413.959 639.091L520.73 670.861L653.174 686.685L593.312 747.913L643.636 810.702L530.57 856.227L578.873 956.096L578.563 956.246L530.098 856.045L643.076 810.555L592.852 747.89L652.438 686.944L520.84 671.221L506.258 764.673L442.178 697.228L350.431 686.807L350.24 686.862L350.218 686.783L350.198 686.781L218.464 671.406L218.504 671.064L350.115 686.424ZM203.797 764.137L341.011 810.465L340.901 810.792L203.687 764.464L203.797 764.137ZM413.959 967.075L520.933 999.054L520.835 999.384L413.861 967.406L413.959 967.075Z" fill="#444444"/>
<path d="M593.082 749.951C594.126 749.951 594.972 749.033 594.972 747.901C594.972 746.769 594.126 745.851 593.082 745.851C592.038 745.851 591.192 746.769 591.192 747.901C591.192 749.033 592.038 749.951 593.082 749.951Z" fill="#555555"/>
<path d="M506.142 766.35C507.186 766.35 508.032 765.433 508.032 764.301C508.032 763.168 507.186 762.251 506.142 762.251C505.098 762.251 504.252 763.168 504.252 764.301C504.252 765.433 505.098 766.35 506.142 766.35Z" fill="#555555"/>
<path d="M530.334 858.186C531.378 858.186 532.224 857.268 532.224 856.136C532.224 855.004 531.378 854.086 530.334 854.086C529.29 854.086 528.444 855.004 528.444 856.136C528.444 857.268 529.29 858.186 530.334 858.186Z" fill="#555555"/>
<path d="M578.718 958.221C579.762 958.221 580.608 957.303 580.608 956.171C580.608 955.039 579.762 954.121 578.718 954.121C577.674 954.121 576.828 955.039 576.828 956.171C576.828 957.303 577.674 958.221 578.718 958.221Z" fill="#555555"/>
<path d="M498.96 926.653C500.004 926.653 500.85 925.735 500.85 924.603C500.85 923.471 500.004 922.553 498.96 922.553C497.916 922.553 497.07 923.471 497.07 924.603C497.07 925.735 497.916 926.653 498.96 926.653Z" fill="#555555"/>
<path d="M419.202 876.635C420.246 876.635 421.092 875.717 421.092 874.585C421.092 873.453 420.246 872.535 419.202 872.535C418.158 872.535 417.312 873.453 417.312 874.585C417.312 875.717 418.158 876.635 419.202 876.635Z" fill="#555555"/>
<path d="M413.91 969.291C414.954 969.291 415.8 968.373 415.8 967.241C415.8 966.109 414.954 965.191 413.91 965.191C412.866 965.191 412.02 966.109 412.02 967.241C412.02 968.373 412.866 969.291 413.91 969.291Z" fill="#555555"/>
<path d="M317.52 901.644C318.564 901.644 319.41 900.726 319.41 899.594C319.41 898.462 318.564 897.544 317.52 897.544C316.476 897.544 315.63 898.462 315.63 899.594C315.63 900.726 316.476 901.644 317.52 901.644Z" fill="#555555"/>
<path d="M340.956 812.678C342 812.678 342.846 811.76 342.846 810.628C342.846 809.496 342 808.578 340.956 808.578C339.912 808.578 339.066 809.496 339.066 810.628C339.066 811.76 339.912 812.678 340.956 812.678Z" fill="#555555"/>
<path d="M350.406 688.864C351.45 688.864 352.296 687.946 352.296 686.814C352.296 685.682 351.45 684.764 350.406 684.764C349.362 684.764 348.516 685.682 348.516 686.814C348.516 687.946 349.362 688.864 350.406 688.864Z" fill="#555555"/>
<path d="M442.26 699.114C443.304 699.114 444.15 698.196 444.15 697.064C444.15 695.932 443.304 695.014 442.26 695.014C441.216 695.014 440.37 695.932 440.37 697.064C440.37 698.196 441.216 699.114 442.26 699.114Z" fill="#555555"/>
<path d="M520.884 673.285C521.928 673.285 522.774 672.367 522.774 671.235C522.774 670.103 521.928 669.185 520.884 669.185C519.84 669.185 518.994 670.103 518.994 671.235C518.994 672.367 519.84 673.285 520.884 673.285Z" fill="#555555"/>
<path d="M391.986 763.071C393.03 763.071 393.876 762.153 393.876 761.021C393.876 759.889 393.03 758.971 391.986 758.971C390.942 758.971 390.096 759.889 390.096 761.021C390.096 762.153 390.942 763.071 391.986 763.071Z" fill="#555555"/>
<path d="M449.82 812.678C450.864 812.678 451.71 811.76 451.71 810.628C451.71 809.496 450.864 808.578 449.82 808.578C448.776 808.578 447.93 809.496 447.93 810.628C447.93 811.76 448.776 812.678 449.82 812.678Z" fill="#555555"/>
</g>
<mask id="mask14_38_2924" style="mask-type:luminance" maskUnits="userSpaceOnUse" x="0" y="654" width="303" height="328">
<path d="M302.4 654.016H0V982H302.4V654.016Z" fill="white"/>
</mask>
<g mask="url(#mask14_38_2924)">
<path d="M302.4 654.016H0V982H302.4V654.016Z" fill="#0D0D0D"/>
<path fill-rule="evenodd" clip-rule="evenodd" d="M-25.9751 628.052L48.0738 686.592L-11.4882 747.912L38.8358 810.702L-74.0406 856.151L15.1392 899.412L116.832 874.4L196.638 924.448L276.405 956.02L350.513 1014.66L350.299 1014.93L276.231 956.322L196.496 924.763L196.482 924.757L196.468 924.749L116.772 874.77L15.5298 899.671L111.805 967.237L47.7194 1014.88L14.9752 899.715L-74.8915 856.121L38.2762 810.555L-11.9479 747.89L47.5601 686.626L-26.189 628.322L-25.9751 628.052ZM15.4189 900.014L47.9146 1014.31L111.215 967.245L15.4189 900.014ZM391.964 761.151L290.66 748.072L290.704 747.73L392.008 760.809L391.964 761.151Z" fill="#444444"/>
<path fill-rule="evenodd" clip-rule="evenodd" d="M89.5128 761.185L-11.7402 748.072L-11.6959 747.73L89.6592 760.856L147.52 810.486L228.445 856.227L116.564 874.563L38.2578 810.557L38.4762 810.29L116.662 874.197L227.422 856.045L147.32 810.77L89.5128 761.185ZM111.665 967.165L140.015 1024.97L139.705 1025.12L111.355 967.317L111.665 967.165Z" fill="#444444"/>
<path fill-rule="evenodd" clip-rule="evenodd" d="M111.574 638.994L139.949 696.853L218.345 670.832L291.024 748.012L203.817 764.462L147.559 810.737L116.972 874.629L111.699 966.953L196.428 924.476L227.851 855.904L317.781 899.529L276.442 956.294L218.388 999.505L196.453 924.849L111.321 967.528L116.632 874.541L147.281 810.519L203.667 764.139L290.34 747.79L218.245 671.228L139.771 697.275L111.446 639.519L48.0417 686.657L89.8013 761.052L38.7106 810.719L15.2785 899.669L-25.845 956.139L48.113 1014.66L47.8989 1014.93L-26.319 956.204L14.9614 899.519L38.4014 810.538L89.3706 760.989L47.5923 686.561L111.574 638.994ZM196.744 924.616L218.58 998.933L276.194 956.048L317.259 899.659L228.017 856.368L196.744 924.616Z" fill="#444444"/>
<path fill-rule="evenodd" clip-rule="evenodd" d="M196.395 596.668L196.725 596.57L218.768 671.153L276.214 628.049L276.421 628.325L218.578 671.727L196.395 596.668ZM89.9332 760.858L139.996 697.17L139.724 696.957L89.2387 761.183L203.608 764.469L227.767 856.18L228.101 856.092L203.99 764.566L340.901 810.792L341.011 810.465L203.773 764.129L89.9332 760.858ZM38.556 810.456H147.42V810.801H38.556V810.456Z" fill="#444444"/>
<path fill-rule="evenodd" clip-rule="evenodd" d="M47.7151 686.424L14.9541 571.657L15.2859 571.563L48.086 686.466L139.942 696.899L203.626 763.928L218.101 671.152L111.461 639.422L111.559 639.091L218.33 670.861L350.774 686.685L290.912 747.913L341.236 810.702L228.17 856.227L276.473 956.096L276.163 956.246L227.698 856.045L340.676 810.555L290.452 747.89L350.038 686.944L218.44 671.221L203.858 764.673L139.778 697.228L48.0308 686.807L47.8401 686.862L47.8176 686.783L47.7975 686.781L-83.936 671.406L-83.896 671.064L47.7151 686.424ZM-98.6028 764.137L38.6111 810.465L38.5008 810.792L-98.7132 764.464L-98.6028 764.137ZM111.559 967.075L218.533 999.054L218.435 999.384L111.461 967.406L111.559 967.075Z" fill="#444444"/>
<path d="M290.682 749.951C291.726 749.951 292.572 749.033 292.572 747.901C292.572 746.769 291.726 745.851 290.682 745.851C289.638 745.851 288.792 746.769 288.792 747.901C288.792 749.033 289.638 749.951 290.682 749.951Z" fill="#555555"/>
<path d="M203.742 766.35C204.786 766.35 205.632 765.433 205.632 764.301C205.632 763.168 204.786 762.251 203.742 762.251C202.698 762.251 201.852 763.168 201.852 764.301C201.852 765.433 202.698 766.35 203.742 766.35Z" fill="#555555"/>
<path d="M227.934 858.186C228.978 858.186 229.824 857.268 229.824 856.136C229.824 855.004 228.978 854.086 227.934 854.086C226.89 854.086 226.044 855.004 226.044 856.136C226.044 857.268 226.89 858.186 227.934 858.186Z" fill="#555555"/>
<path d="M276.318 958.221C277.362 958.221 278.208 957.303 278.208 956.171C278.208 955.039 277.362 954.121 276.318 954.121C275.274 954.121 274.428 955.039 274.428 956.171C274.428 957.303 275.274 958.221 276.318 958.221Z" fill="#555555"/>
<path d="M196.56 926.653C197.604 926.653 198.45 925.735 198.45 924.603C198.45 923.471 197.604 922.553 196.56 922.553C195.516 922.553 194.67 923.471 194.67 924.603C194.67 925.735 195.516 926.653 196.56 926.653Z" fill="#555555"/>
<path d="M116.802 876.635C117.846 876.635 118.692 875.717 118.692 874.585C118.692 873.453 117.846 872.535 116.802 872.535C115.758 872.535 114.912 873.453 114.912 874.585C114.912 875.717 115.758 876.635 116.802 876.635Z" fill="#555555"/>
<path d="M111.51 969.291C112.554 969.291 113.4 968.373 113.4 967.241C113.4 966.109 112.554 965.191 111.51 965.191C110.466 965.191 109.62 966.109 109.62 967.241C109.62 968.373 110.466 969.291 111.51 969.291Z" fill="#555555"/>
<path d="M15.12 901.644C16.1638 901.644 17.01 900.726 17.01 899.594C17.01 898.462 16.1638 897.544 15.12 897.544C14.0762 897.544 13.23 898.462 13.23 899.594C13.23 900.726 14.0762 901.644 15.12 901.644Z" fill="#555555"/>
<path d="M38.556 812.678C39.5998 812.678 40.446 811.76 40.446 810.628C40.446 809.496 39.5998 808.578 38.556 808.578C37.5121 808.578 36.666 809.496 36.666 810.628C36.666 811.76 37.5121 812.678 38.556 812.678Z" fill="#555555"/>
<path d="M48.006 688.864C49.0498 688.864 49.896 687.946 49.896 686.814C49.896 685.682 49.0498 684.764 48.006 684.764C46.9621 684.764 46.116 685.682 46.116 686.814C46.116 687.946 46.9621 688.864 48.006 688.864Z" fill="#555555"/>
<path d="M139.86 699.114C140.904 699.114 141.75 698.196 141.75 697.064C141.75 695.932 140.904 695.014 139.86 695.014C138.816 695.014 137.97 695.932 137.97 697.064C137.97 698.196 138.816 699.114 139.86 699.114Z" fill="#555555"/>
<path d="M218.484 673.285C219.528 673.285 220.374 672.367 220.374 671.235C220.374 670.103 219.528 669.185 218.484 669.185C217.44 669.185 216.594 670.103 216.594 671.235C216.594 672.367 217.44 673.285 218.484 673.285Z" fill="#555555"/>
<path d="M89.586 763.071C90.6298 763.071 91.476 762.153 91.476 761.021C91.476 759.889 90.6298 758.971 89.586 758.971C88.5422 758.971 87.696 759.889 87.696 761.021C87.696 762.153 88.5422 763.071 89.586 763.071Z" fill="#555555"/>
<path d="M147.42 812.678C148.464 812.678 149.31 811.76 149.31 810.628C149.31 809.496 148.464 808.578 147.42 808.578C146.376 808.578 145.53 809.496 145.53 810.628C145.53 811.76 146.376 812.678 147.42 812.678Z" fill="#555555"/>
</g>
</g>
<defs>
<clipPath id="clip0_38_2924">
<rect width="1512" height="982" fill="white"/>
</clipPath>
</defs>
</svg>
