<svg width="73" height="73" viewBox="0 0 73 73" fill="none" xmlns="http://www.w3.org/2000/svg">
<rect x="1.53878" y="0.904012" width="70.5129" height="70.5129" rx="18.0802" stroke="#7E7E7E" stroke-width="1.80802"/>
<path d="M55.3459 56.9529C56.593 56.9529 57.5875 55.9201 57.5875 54.6615V17.6598C57.5875 16.385 56.5772 15.3683 55.3459 15.3683H19.1486C17.9173 15.3683 16.907 16.4011 16.907 17.6598V54.6615C16.907 55.9363 17.9173 56.9529 19.1486 56.9529H55.3459Z" fill="#157DC3"/>
<path d="M44.9091 56.9529V40.8715H50.2408L51.0366 34.6034H44.9091V30.6072C44.9091 28.7864 45.4025 27.5617 47.9808 27.5617H51.2594V21.9381C50.6865 21.8575 48.7448 21.6964 46.4847 21.6964C41.7578 21.6964 38.5269 24.613 38.5269 29.9788V34.6034H33.1792V40.8715H38.5269V56.9529H44.9091Z" fill="white"/>
</svg>
