<svg width="41" height="45" viewBox="0 0 41 45" fill="none" xmlns="http://www.w3.org/2000/svg">
<path d="M13.7243 15.531H8.90642C6.24837 15.531 4.91836 15.531 3.90312 16.0456C3.01009 16.4982 2.28457 17.2199 1.82955 18.1082C1.31226 19.118 1.31226 20.441 1.31226 23.085V36.3037C1.31226 38.9476 1.31226 40.2689 1.82955 41.2788C2.28457 42.1671 3.01009 42.8901 3.90312 43.3427C4.91737 43.8567 6.24583 43.8567 8.89869 43.8567H31.6944C34.3472 43.8567 35.6737 43.8567 36.688 43.3427C37.581 42.89 38.3089 42.1671 38.764 41.2788C39.2807 40.2699 39.2807 38.9504 39.2807 36.3116V23.0772C39.2807 20.4384 39.2807 19.117 38.764 18.1082C38.3089 17.2199 37.581 16.4982 36.688 16.0456C35.6727 15.531 34.3456 15.531 31.6875 15.531H26.8673M13.7243 15.531H26.8673M13.7243 15.531C13.4219 15.531 13.1774 15.2871 13.1774 14.9863V8.44959C13.1774 4.53863 16.3647 1.36816 20.2965 1.36816C24.2283 1.36816 27.4156 4.53863 27.4156 8.44959V14.9863C27.4156 15.2871 27.1697 15.531 26.8673 15.531" stroke="#EF6214" stroke-width="1.80802" stroke-linecap="round" stroke-linejoin="round"/>
</svg>
