<svg width="41" height="31" viewBox="0 0 41 31" fill="none" xmlns="http://www.w3.org/2000/svg">
<path d="M3.42162 3.78262L16.3048 13.0152L16.3091 13.0186C17.7396 14.0141 18.4553 14.5121 19.2392 14.7045C19.9321 14.8746 20.6604 14.8746 21.3532 14.7045C22.1378 14.512 22.8556 14.0125 24.2886 13.0152C24.2886 13.0152 32.5521 6.9973 37.1714 3.78262M1.31226 23.4001V8.18684C1.31226 5.94468 1.31226 4.82277 1.77207 3.96638C2.17653 3.21307 2.82145 2.60106 3.61525 2.21724C4.51768 1.78088 5.69992 1.78088 8.06262 1.78088H32.5312C34.8939 1.78088 36.0736 1.78088 36.9761 2.21724C37.7699 2.60106 38.4169 3.21307 38.8214 3.96638C39.2807 4.82193 39.2807 5.94249 39.2807 8.18027V23.4068C39.2807 25.6446 39.2807 26.7636 38.8214 27.6191C38.4169 28.3724 37.7699 28.9855 36.9761 29.3693C36.0745 29.8052 34.8954 29.8052 32.5373 29.8052H8.05569C5.6976 29.8052 4.5168 29.8052 3.61525 29.3693C2.82145 28.9855 2.17653 28.3724 1.77207 27.6191C1.31226 26.7627 1.31226 25.6422 1.31226 23.4001Z" stroke="#EF6214" stroke-width="1.80802" stroke-linecap="round" stroke-linejoin="round"/>
</svg>
