<svg width="40" height="44" viewBox="0 0 40 44" fill="none" xmlns="http://www.w3.org/2000/svg">
<path d="M12.875 15H8.60046C5.94021 15 4.6091 15 3.59302 15.5086C2.69925 15.956 1.97312 16.6694 1.51772 17.5475C1 18.5458 1 19.8535 1 22.4671V35.5338C1 38.1474 1 39.4535 1.51772 40.4517C1.97312 41.3298 2.69925 42.0444 3.59302 42.4919C4.60811 43 5.93764 43 8.59274 43L31.4073 43C34.0624 43 35.39 43 36.4051 42.4919C37.2988 42.0444 38.0274 41.3298 38.4828 40.4517C39 39.4544 39 38.1501 39 35.5417V22.4594C39 19.851 39 18.5448 38.4828 17.5475C38.0274 16.6694 37.2988 15.956 36.4051 15.5086C35.389 15 34.0607 15 31.4005 15H12.875ZM12.875 15V8.28027C12.875 4.25964 15.9626 1 19.7712 1C21.7282 1 23.4931 1.86051 24.7483 3.24264" stroke="#EF6214" stroke-width="2" stroke-linecap="round" stroke-linejoin="round"/>
</svg>
