<svg width="73" height="73" viewBox="0 0 73 73" fill="none" xmlns="http://www.w3.org/2000/svg">
<path d="M37.2244 32.0858V39.9988H48.2207C47.7378 42.5435 46.2888 44.6983 44.1156 46.1471L50.7468 51.2924C54.6104 47.7262 56.8394 42.488 56.8394 36.2654C56.8394 34.8166 56.7094 33.4233 56.4679 32.086L37.2244 32.0858Z" fill="#4285F4"/>
<path d="M25.7734 39.6898L24.2778 40.8347L18.9839 44.9583C22.3459 51.6266 29.2368 56.2333 37.2239 56.2333C42.7406 56.2333 47.3657 54.4129 50.7464 51.2924L44.1152 46.1471C42.2948 47.373 39.9729 48.1161 37.2239 48.1161C31.9115 48.1161 27.3979 44.5312 25.7818 39.7016L25.7734 39.6898Z" fill="#34A853"/>
<path d="M18.9839 26.6433C17.5909 29.3923 16.7922 32.4944 16.7922 35.8006C16.7922 39.1069 17.5909 42.209 18.9839 44.958C18.9839 44.9764 25.7825 39.6827 25.7825 39.6827C25.3738 38.4567 25.1323 37.1566 25.1323 35.8004C25.1323 34.4443 25.3738 33.1441 25.7825 31.9182L18.9839 26.6433Z" fill="#FBBC05"/>
<path d="M37.2243 23.5042C40.2335 23.5042 42.9083 24.5444 45.0444 26.5505L50.8955 20.6995C47.3476 17.3932 42.7412 15.3684 37.2243 15.3684C29.2372 15.3684 22.3459 19.9564 18.9839 26.6434L25.7822 31.9187C27.3982 27.0892 31.9119 23.5042 37.2243 23.5042Z" fill="#EA4335"/>
<rect x="1.42403" y="0.904012" width="70.5129" height="70.5129" rx="18.0802" stroke="#7E7E7E" stroke-width="1.80802"/>
</svg>
