<svg width="30" height="53" viewBox="0 0 30 53" fill="none" xmlns="http://www.w3.org/2000/svg">
<path d="M5.48562 50.974H1.23523V9.1615C1.23523 9.1615 1.97905 9.62293 3.36139 9.62293C4.74374 9.62293 5.48562 9.16247 5.48562 9.16247V50.974Z" fill="white"/>
<path d="M20.7857 50.9739H5.48572V46.7255H20.7857C20.7857 46.7255 20.349 47.3077 20.349 48.8497C20.349 50.3917 20.7857 50.9739 20.7857 50.9739Z" fill="white"/>
<path d="M23.9742 1.66553H28.2227V43.4785C28.2227 43.4785 27.4803 43.018 26.0985 43.018C24.7166 43.018 23.9742 43.4785 23.9742 43.4785V1.66553Z" fill="white"/>
<path d="M8.67432 1.66553H23.9743V5.91397H8.67432C8.67432 5.91397 9.111 5.33173 9.111 3.78975C9.111 2.24777 8.67432 1.66553 8.67432 1.66553Z" fill="white"/>
<path d="M3.50748 7.17219C5.3329 7.17219 6.81269 5.6924 6.81269 3.86698C6.81269 2.04156 5.3329 0.561768 3.50748 0.561768C1.68206 0.561768 0.202271 2.04156 0.202271 3.86698C0.202271 5.6924 1.68206 7.17219 3.50748 7.17219Z" fill="white"/>
<path d="M26.0011 52.1268C27.8265 52.1268 29.3063 50.647 29.3063 48.8216C29.3063 46.9962 27.8265 45.5164 26.0011 45.5164C24.1757 45.5164 22.6959 46.9962 22.6959 48.8216C22.6959 50.647 24.1757 52.1268 26.0011 52.1268Z" fill="white"/>
<path d="M19.1708 38.121H21.2086V18.0874C21.2086 18.0874 20.853 18.3077 20.1897 18.3077C19.5264 18.3077 19.1708 18.0874 19.1708 18.0874V38.121Z" fill="white"/>
<path d="M11.8403 38.1209H19.1708V36.083H11.8403C11.8403 36.083 12.0495 36.362 12.0495 37.1019C12.0495 37.8419 11.8403 38.1209 11.8403 38.1209Z" fill="white"/>
<path d="M10.3124 14.4957H8.27454V34.5293C8.27454 34.5293 8.63019 34.3086 9.29346 34.3086C9.95674 34.3086 10.3124 34.5293 10.3124 34.5293V14.4957Z" fill="white"/>
<path d="M17.643 14.4957H10.3125V16.5312H17.643C17.643 16.5312 17.4338 16.2522 17.4338 15.5122C17.4338 14.7723 17.643 14.4957 17.643 14.4957Z" fill="white"/>
<path d="M20.1184 17.1343C20.993 17.1343 21.7021 16.4253 21.7021 15.5506C21.7021 14.676 20.993 13.9669 20.1184 13.9669C19.2437 13.9669 18.5347 14.676 18.5347 15.5506C18.5347 16.4253 19.2437 17.1343 20.1184 17.1343Z" fill="white"/>
<path d="M9.34103 38.6731C10.2157 38.6731 10.9247 37.9641 10.9247 37.0894C10.9247 36.2148 10.2157 35.5057 9.34103 35.5057C8.46637 35.5057 7.75732 36.2148 7.75732 37.0894C7.75732 37.9641 8.46637 38.6731 9.34103 38.6731Z" fill="white"/>
</svg>
