<svg width="30" height="41" viewBox="0 0 30 41" fill="none" xmlns="http://www.w3.org/2000/svg">
<g id="Group">
<path id="Vector" d="M0 12.0784L4.35714 10.4727C4.72857 8.83854 5.65714 7.90069 5.65714 7.90069C8 5.57027 11.7857 5.57027 14.1286 7.90069L16.2428 10.0038L25.7143 0C27.1428 5.68394 25.7143 11.3679 22.2143 15.9434L30 23.4463C30 23.4463 17.3 26.2883 9.9 20.5333C5.95715 17.464 5.07143 15.6734 4.51428 13.7836L0 12.0784ZM7.55714 12.391C8.11429 12.9452 9.02857 12.9452 9.58571 12.391C10.1429 11.8368 10.1429 10.9416 9.58571 10.3874C9.02857 9.83323 8.11429 9.83323 7.55714 10.3874C7 10.9416 7 11.8368 7.55714 12.391Z" fill="white"/>
<path id="Vector_2" d="M25.1498 34.1787C25.7939 37.2097 23.8597 40.1892 20.8296 40.8335C17.7996 41.4777 14.8211 39.5429 14.177 36.5118C13.533 33.4807 15.6236 30.8286 17.8975 27.0345C21.4482 29.5574 24.5058 31.1477 25.1498 34.1787Z" fill="white"/>
<path id="Vector_3" d="M18.8852 31.6101L13.9324 26.1077L21.1726 24.5682L18.8852 31.6101Z" fill="white"/>
</g>
</svg>
