<svg width="46" height="36" viewBox="0 0 46 36" fill="none" xmlns="http://www.w3.org/2000/svg">
<path d="M3.99457 4.00325L18.5088 14.7973L18.5136 14.8012C20.1252 15.9651 20.9315 16.5474 21.8147 16.7724C22.5952 16.9712 23.4157 16.9712 24.1963 16.7724C25.0802 16.5472 25.8889 15.9632 27.5033 14.7973C27.5033 14.7973 36.8129 7.76162 42.017 4.00325M1.61816 26.9385V9.15235C1.61816 6.53098 1.61816 5.21931 2.13619 4.21808C2.59186 3.33738 3.31842 2.62186 4.21272 2.17312C5.2294 1.66296 6.5613 1.66296 9.22312 1.66296H36.7894C39.4512 1.66296 40.7803 1.66296 41.797 2.17312C42.6913 2.62186 43.4203 3.33738 43.8759 4.21808C44.3934 5.21834 44.3934 6.52841 44.3934 9.14466V26.9465C44.3934 29.5627 44.3934 30.8709 43.8759 31.8711C43.4203 32.7518 42.6913 33.4686 41.797 33.9174C40.7813 34.427 39.4529 34.427 36.7963 34.427H9.21532C6.55869 34.427 5.2284 34.427 4.21272 33.9174C3.31842 33.4686 2.59186 32.7518 2.13619 31.8711C1.61816 30.8699 1.61816 29.5599 1.61816 26.9385Z" stroke="#7E7E7E" stroke-width="2.73034" stroke-linecap="round" stroke-linejoin="round"/>
</svg>
