<svg width="47" height="40" viewBox="0 0 47 40" fill="none" xmlns="http://www.w3.org/2000/svg">
<path d="M12.8972 34.1547C16.0041 36.7669 19.9936 38.3371 24.3448 38.3371C34.2573 38.3371 42.2929 30.1877 42.2929 20.1349C42.2929 18.8401 42.1596 17.577 41.9062 16.3587M12.8972 34.1547C8.92602 30.8159 6.39663 25.7749 6.39663 20.1349C6.39663 10.082 14.4323 1.93262 24.3448 1.93262C32.9806 1.93262 40.1919 8.11803 41.9062 16.3587M12.8972 34.1547C17.2844 33.1375 22.5038 31.0171 27.7681 27.9347C33.8937 24.3481 38.8763 20.1633 41.9062 16.3587M12.8972 34.1547C7.44726 35.4182 3.28141 34.9795 1.9085 32.5679C0.494377 30.0838 2.34971 26.0436 6.3963 21.748M41.9062 16.3587C44.7147 12.8321 45.8453 9.63229 44.6533 7.53832C43.4444 5.41495 40.0705 4.82083 35.5613 5.57144" stroke="#7E7E7E" stroke-width="2.73034" stroke-linecap="round" stroke-linejoin="round"/>
</svg>
