<svg width="37" height="40" viewBox="0 0 37 40" fill="none" xmlns="http://www.w3.org/2000/svg">
<path d="M24.5257 30.1573V32.1797C24.5257 35.5307 21.7752 38.2471 18.3823 38.2471C14.9894 38.2471 12.2389 35.5307 12.2389 32.1797V30.1573M24.5257 30.1573H12.2389M24.5257 30.1573H31.8783C32.6616 30.1573 33.0551 30.1573 33.3723 30.0516C33.9782 29.8498 34.4523 29.3799 34.6566 28.7815C34.764 28.467 34.764 28.0771 34.764 27.2974C34.764 26.9561 34.7637 26.7855 34.7366 26.6229C34.6855 26.3155 34.5647 26.024 34.3808 25.771C34.2836 25.6373 34.16 25.5152 33.9165 25.2747L33.1188 24.4868C32.8614 24.2327 32.7168 23.8879 32.7168 23.5284V16C32.7168 8.18108 26.2991 1.84263 18.3823 1.84265C10.4656 1.84267 4.04779 8.18111 4.04779 16V23.5285C4.04779 23.8879 3.9029 24.2327 3.64553 24.4868L2.84791 25.2746C2.6036 25.5159 2.48132 25.6371 2.38396 25.771C2.19998 26.0241 2.07811 26.3154 2.02703 26.6229C2 26.7855 2 26.9562 2 27.2974C2 28.0772 2 28.467 2.10741 28.7815C2.31178 29.3798 2.78798 29.8498 3.39386 30.0516C3.71105 30.1573 4.10311 30.1573 4.88647 30.1573H12.2389" stroke="#7E7E7E" stroke-width="2.73034" stroke-linecap="round" stroke-linejoin="round"/>
</svg>
