<svg width="73" height="73" viewBox="0 0 73 73" fill="none" xmlns="http://www.w3.org/2000/svg">
<rect x="1.4814" y="0.904012" width="70.5129" height="70.5129" rx="18.0802" stroke="#7E7E7E" stroke-width="1.80802"/>
<path fill-rule="evenodd" clip-rule="evenodd" d="M22.3534 15.3684H51.1222C54.6611 15.3684 57.5301 18.2373 57.5301 21.7763V50.5451C57.5301 54.0839 54.6611 56.9529 51.1222 56.9529H22.3534C18.8145 56.9529 15.9456 54.0839 15.9456 50.5451V21.7763C15.9456 18.2373 18.8145 15.3684 22.3534 15.3684Z" fill="#4C75A3"/>
<path fill-rule="evenodd" clip-rule="evenodd" d="M36.4469 44.2285H38.068C38.068 44.2285 38.5575 44.1718 38.8078 43.8885C39.0379 43.6282 39.0305 43.1397 39.0305 43.1397C39.0305 43.1397 38.9988 40.8521 40.0081 40.5152C41.0035 40.1831 42.2814 42.726 43.6358 43.7039C44.66 44.4436 45.4383 44.2817 45.4383 44.2817L49.0602 44.2285C49.0602 44.2285 50.9547 44.1056 50.0563 42.5389C49.9828 42.411 49.533 41.3801 47.3633 39.262C45.0922 37.0451 45.3966 37.4038 48.1322 33.5691C49.7982 31.2338 50.4641 29.8082 50.256 29.1976C50.0578 28.6159 48.8323 28.7696 48.8323 28.7696L44.7545 28.7961C44.7545 28.7961 44.4519 28.7528 44.2279 28.8938C44.0087 29.0317 43.868 29.3539 43.868 29.3539C43.868 29.3539 43.2224 31.1609 42.3619 32.6979C40.5461 35.9407 39.8199 36.1124 39.5231 35.9107C38.8325 35.4413 39.0051 34.0255 39.0051 33.0194C39.0051 29.8767 39.4583 28.5664 38.1225 28.2272C37.6793 28.1147 37.3528 28.0403 36.2191 28.0281C34.764 28.0126 33.5327 28.0329 32.8353 28.3921C32.3714 28.6311 32.0135 29.1634 32.2316 29.194C32.5012 29.2318 33.1114 29.3673 33.435 29.8303C33.853 30.4284 33.8384 31.7711 33.8384 31.7711C33.8384 31.7711 34.0786 35.4705 33.2776 35.93C32.728 36.2451 31.9739 35.6017 30.355 32.6597C29.5257 31.1527 28.8993 29.4867 28.8993 29.4867C28.8993 29.4867 28.7787 29.1754 28.5633 29.0088C28.302 28.8069 27.9369 28.743 27.9369 28.743L24.0617 28.7696C24.0617 28.7696 23.4801 28.7866 23.2664 29.0527C23.0762 29.2895 23.2512 29.7788 23.2512 29.7788C23.2512 29.7788 26.2848 37.2436 29.7201 41.0054C32.8704 44.4549 36.4469 44.2285 36.4469 44.2285Z" fill="white"/>
</svg>
